<?xml version="1.0" standalone="no"?>
<!DOCTYPE svg PUBLIC "-//W3C//DTD SVG 20010904//EN"
 "http://www.w3.org/TR/2001/REC-SVG-20010904/DTD/svg10.dtd">
<svg version="1.0" xmlns="http://www.w3.org/2000/svg"
 width="300.000000pt" height="196.000000pt" viewBox="0 0 300.000000 196.000000"
 preserveAspectRatio="xMidYMid meet">
<metadata>
Created by potrace 1.10, written by Peter Selinger 2001-2011
</metadata>
<g transform="translate(0.000000,196.000000) scale(0.100000,-0.100000)"
fill="#8fbc8f" stroke="none">
<path d="M425 1701 c-5 -8 59 -223 158 -533 22 -69 23 -78 9 -92 -13 -12 -14
-19 -4 -28 16 -16 17 -228 1 -228 -6 0 -9 -9 -6 -20 3 -12 1 -18 -5 -14 -6 4
-8 -2 -3 -16 5 -17 4 -21 -6 -15 -9 6 -11 4 -6 -8 3 -9 1 -18 -6 -21 -9 -3 -9
-5 0 -5 10 -1 10 -7 1 -26 -6 -14 -15 -25 -21 -25 -5 0 -6 -7 -3 -15 3 -9 -3
-35 -13 -58 -10 -23 -26 -64 -34 -90 -12 -40 -12 -47 -1 -43 22 8 16 -22 -9
-47 -12 -13 -30 -49 -40 -81 -20 -61 -18 -87 2 -38 7 16 20 28 31 29 18 2 19
0 4 -22 -9 -13 -13 -28 -10 -34 7 -11 -29 -25 -43 -17 -5 3 -12 -15 -16 -40
-6 -39 -3 -50 15 -69 12 -13 34 -26 48 -30 27 -7 26 -7 -12 -20 -45 -16 -56
-29 -56 -67 0 -21 5 -28 19 -28 13 0 18 5 14 18 -2 10 6 27 22 42 l27 25 223
0 c160 0 227 -3 236 -12 6 -6 12 -26 13 -42 1 -38 12 -40 19 -4 8 38 -30 69
-85 71 -57 3 -61 12 -5 12 25 0 49 5 52 10 4 6 10 8 15 5 4 -3 14 2 21 11 14
17 13 75 -1 84 -14 8 -60 187 -54 205 4 10 -2 24 -15 36 -11 11 -21 30 -22 42
-1 21 -1 21 -10 -3 -8 -22 -8 -21 -4 8 3 20 1 31 -5 27 -6 -3 -10 -1 -10 4 0
26 22 8 40 -31 21 -49 26 -33 7 27 -9 29 -11 109 -7 300 l5 260 17 -75 c10
-41 33 -147 51 -235 l33 -160 -27 -113 c-21 -85 -26 -119 -19 -138 6 -14 10
-37 10 -50 0 -14 4 -23 9 -20 9 6 22 -55 25 -111 1 -39 15 -38 35 1 10 22 11
33 2 50 -7 12 -11 53 -9 96 l3 75 34 5 34 5 28 110 c55 211 83 310 91 325 6
10 7 5 4 -15 -3 -16 -1 -48 4 -70 7 -31 8 -18 5 55 -5 115 0 142 31 175 19 21
32 25 81 25 l58 0 0 69 c0 53 4 74 19 90 18 20 18 21 -8 31 -15 5 -44 10 -64
9 -41 -1 -36 -4 21 -14 38 -6 52 -24 20 -26 -10 0 -13 -2 -8 -5 6 -2 9 -33 7
-74 l-4 -70 -41 0 c-23 0 -52 -3 -64 -6 -20 -5 -21 -3 -13 28 18 78 21 94 11
73 -9 -19 -10 -19 -10 3 -1 13 5 22 14 22 14 0 33 46 23 56 -3 2 -16 0 -29 -5
-13 -5 -19 -10 -12 -10 14 -1 6 -31 -9 -31 -5 0 -12 9 -15 20 -5 17 -7 18 -21
4 -13 -14 -13 -17 -1 -25 8 -5 18 -9 22 -9 4 0 7 -37 5 -82 -2 -56 -7 -82 -15
-81 -6 1 -18 -13 -27 -32 -19 -38 -27 -45 -19 -16 5 19 -22 37 -32 21 -8 -12
16 -48 35 -54 8 -2 2 -4 -15 -5 -22 -1 -26 -4 -16 -10 16 -10 41 -4 54 13 9
12 7 0 -17 -86 -18 -63 -23 -69 -54 -62 -15 4 -26 22 -38 60 -16 51 -16 55 1
80 9 15 12 23 6 20 -25 -16 -9 27 24 62 19 20 33 30 30 22 -4 -11 2 -16 21
-18 20 -1 25 2 20 14 -3 9 -6 43 -6 76 0 65 -9 74 -14 15 -2 -24 -15 -49 -37
-74 -18 -21 -29 -29 -25 -18 5 11 15 48 23 83 8 34 19 62 24 62 6 0 7 5 4 10
-3 6 -2 10 3 10 5 0 8 12 7 28 -1 26 0 27 37 24 24 -3 38 0 38 8 0 7 -12 10
-32 8 -20 -2 -33 2 -36 11 -2 8 0 11 6 7 11 -7 26 40 17 54 -4 6 15 10 44 10
40 0 51 -4 51 -16 0 -8 -4 -12 -10 -9 -9 6 -14 -8 -11 -28 1 -4 -3 -16 -9 -26
-8 -16 -7 -18 10 -14 19 5 55 87 44 104 -3 5 -36 9 -73 9 l-69 0 -6 -37 c-13
-69 -12 -68 -76 -71 -47 -2 -60 0 -60 12 0 8 -3 21 -6 30 -5 13 2 16 43 16 42
0 52 -4 61 -22 10 -22 11 -21 11 10 1 33 0 33 -41 32 -73 -3 -88 -1 -88 14 0
8 8 17 18 19 14 4 14 6 -5 12 -13 4 -23 11 -23 16 0 10 65 29 98 29 34 0 23
-23 -16 -35 -18 -5 -32 -13 -32 -18 0 -9 39 1 57 15 8 6 13 2 16 -14 3 -13 4
-5 4 17 l-2 40 -53 -1 c-34 -1 -60 -8 -71 -18 -17 -16 -18 -21 -5 -63 8 -25
14 -57 14 -70 0 -20 -5 -23 -43 -23 -23 0 -59 -9 -80 -19 -24 -12 -39 -15 -44
-8 -4 6 -11 3 -19 -8 -12 -16 -9 -23 19 -54 l32 -36 -4 -255 -3 -255 -20 65
c-10 36 -29 90 -41 120 -28 72 -35 225 -11 251 9 10 14 24 11 31 -4 8 -6 7 -6
-4 -1 -10 -5 -18 -10 -18 -5 0 -7 8 -4 19 5 20 -22 37 -32 21 -4 -6 -1 -10 6
-10 7 0 8 -4 2 -12 -14 -19 0 -238 17 -268 8 -14 13 -28 12 -32 -1 -5 3 -8 8
-8 6 0 10 -8 10 -18 0 -23 40 -143 53 -160 8 -11 5 -12 -19 -6 -16 3 -32 9
-36 13 -6 6 -128 377 -128 392 0 16 -21 62 -26 56 -6 -5 5 -41 82 -277 30 -91
54 -173 54 -183 0 -10 8 -17 18 -17 11 0 18 -8 19 -20 3 -41 47 -160 60 -160
7 0 17 -19 23 -42 6 -24 15 -56 20 -73 23 -83 20 -113 -15 -122 -84 -23 -359
-31 -426 -13 -41 11 -74 51 -57 68 6 6 6 12 -2 17 -8 5 -1 16 20 34 27 22 33
35 35 71 1 25 7 57 13 71 6 15 14 44 18 65 5 22 9 42 10 47 1 4 2 18 3 32 l1
26 121 -2 c66 0 122 1 124 3 2 2 -25 91 -60 198 -35 107 -64 188 -64 180 -1
-9 24 -90 54 -180 30 -91 53 -170 51 -175 -2 -7 -45 -10 -112 -8 -66 1 -113
-2 -121 -9 -17 -14 -17 -4 1 30 7 15 28 70 46 122 28 81 33 112 36 208 2 62 5
116 8 120 4 9 1 42 -7 62 -3 8 -45 141 -92 295 -47 154 -88 286 -90 293 -2 6
-1 12 3 12 4 0 20 -37 34 -82 26 -80 139 -440 159 -505 6 -18 15 -33 20 -33 6
0 8 4 5 9 -6 8 -95 288 -165 519 -30 96 -48 121 -66 93z m729 -499 c-4 -10
-20 -64 -36 -122 -16 -57 -31 -106 -32 -108 -3 -3 -20 152 -21 188 0 8 13 18
30 22 26 6 25 7 -7 3 -28 -3 -38 0 -38 11 0 8 -7 14 -14 14 -13 0 -13 -5 -2
-32 8 -18 17 -62 21 -98 3 -36 11 -82 16 -104 15 -56 1 -82 -17 -31 -12 37
-13 38 -6 5 4 -19 6 -69 4 -111 l-2 -77 32 -6 c18 -4 43 -8 54 -9 13 -1 19 -7
17 -14 -7 -17 -28 -16 -63 2 -16 8 -30 12 -32 7 -2 -4 0 -38 3 -77 3 -38 6
-58 7 -44 6 85 30 113 63 72 12 -14 12 -16 0 -8 -11 6 -12 1 -7 -28 4 -21 2
-38 -4 -42 -5 -3 -10 -17 -10 -30 0 -13 -5 -47 -12 -75 l-12 -52 -35 6 c-32 6
-34 5 -18 -8 17 -13 16 -15 -12 -27 -26 -12 -29 -18 -27 -48 4 -39 -2 -61 -15
-61 -5 0 -9 28 -9 62 0 49 4 66 21 84 12 12 29 20 38 18 9 -3 6 1 -6 7 -27 14
-30 29 -5 30 15 1 15 2 0 6 -13 3 -15 10 -7 36 5 18 9 49 9 69 0 20 5 40 10
43 6 3 10 27 9 53 l0 47 -14 -50 c-8 -27 -15 -54 -16 -60 0 -5 -11 35 -23 90
-14 66 -18 102 -11 107 7 5 6 8 -1 8 -6 0 -21 46 -33 103 -12 56 -24 109 -27
118 -3 13 4 16 41 16 40 0 44 -2 40 -21 -12 -56 -9 -180 4 -171 5 3 9 34 7 70
-1 36 2 65 6 65 4 0 8 -57 8 -127 0 -69 2 -124 4 -122 11 11 9 253 -2 257 -6
2 -8 17 -5 37 l6 34 -52 -6 c-34 -4 -56 -2 -66 7 -8 7 -15 9 -15 4 0 -4 -11 3
-25 16 -14 13 -25 28 -25 34 0 6 7 2 15 -8 13 -17 15 -17 15 -4 0 9 6 20 12
24 22 14 150 29 215 26 56 -3 63 -6 57 -20z m-539 -161 c-6 -5 -25 10 -25 20
0 5 6 4 14 -3 8 -7 12 -15 11 -17z m478 -251 c3 -11 1 -20 -4 -20 -5 0 -9 9
-9 20 0 11 2 20 4 20 2 0 6 -9 9 -20z m-579 -284 c-3 -15 -8 -25 -11 -23 -2 3
-1 17 3 31 3 15 8 25 11 23 2 -3 1 -17 -3 -31z m376 -86 c5 -19 6 -29 1 -24
-10 10 -26 72 -17 63 4 -4 11 -21 16 -39z"/>
<path d="M996 1168 c8 -27 12 -33 19 -27 7 8 -7 49 -17 49 -5 0 -6 -10 -2 -22z"/>
<path d="M890 1170 c-10 -6 -2 -7 25 -3 49 7 58 13 19 13 -16 0 -36 -5 -44
-10z"/>
<path d="M961 1074 c2 -11 0 -25 -4 -31 -5 -9 -3 -13 7 -13 18 0 22 45 5 56
-6 4 -9 -1 -8 -12z"/>
<path d="M1843 1693 c20 -2 54 -2 75 0 20 2 3 4 -38 4 -41 0 -58 -2 -37 -4z"/>
<path d="M1733 1683 c-7 -2 -13 -11 -13 -19 0 -8 -4 -14 -10 -14 -5 0 -10 -5
-10 -11 0 -5 13 -2 29 7 17 10 28 21 25 26 -3 5 6 7 20 4 15 -3 24 -1 21 5 -6
9 -41 11 -62 2z"/>
<path d="M1970 1679 c-12 -8 -10 -9 8 -4 17 5 22 2 22 -12 0 -17 -6 -18 -67
-12 -69 8 -167 2 -191 -11 -11 -5 -13 -67 -12 -313 0 -217 -3 -313 -11 -329
-13 -25 -55 -61 -113 -99 -47 -30 -109 -89 -101 -97 2 -3 24 13 48 35 39 36
121 74 169 78 25 2 28 8 12 23 -8 7 -14 8 -14 2 0 -5 -12 -10 -27 -10 l-28 1
28 17 c54 33 59 71 56 379 l-4 279 29 -4 c21 -3 27 -1 21 7 -4 7 -13 10 -19 8
-7 -3 -18 -2 -25 3 -30 18 176 27 239 10 17 -5 -6 -10 -67 -15 -68 -6 -93 -11
-93 -21 0 -15 16 -19 22 -5 2 5 36 10 76 13 l72 4 0 -32 c0 -18 -6 -35 -12
-37 -10 -4 -10 -6 0 -6 10 -1 12 -54 12 -253 -2 -243 4 -297 29 -313 6 -3 15
-14 20 -23 8 -15 3 -17 -52 -15 -59 2 -58 1 24 -11 89 -14 143 -41 197 -99
l24 -25 -65 -7 c-36 -4 -205 -6 -376 -4 -171 2 -312 2 -312 -1 -1 -3 -3 -16
-4 -29 -2 -21 -1 -22 9 -10 6 9 23 19 38 22 26 7 26 6 -12 -33 -23 -24 -40
-50 -40 -63 1 -18 4 -15 20 15 25 46 59 72 76 57 8 -7 15 -6 20 2 4 7 3 9 -4
5 -6 -3 -13 -2 -17 4 -4 6 5 10 20 10 22 0 26 -4 21 -17 -6 -17 -5 -17 7 -1
12 16 43 18 306 19 l292 2 34 -33 c35 -34 41 -55 8 -29 -11 9 -9 3 6 -19 27
-39 55 -122 40 -122 -11 0 -8 -62 4 -71 14 -10 -4 -38 -20 -32 -11 4 -14 2 -9
-5 9 -16 33 -15 39 1 4 9 6 9 6 0 1 -6 -3 -15 -9 -18 -5 -3 -11 -21 -11 -38
-1 -18 -3 -24 -6 -14 -5 18 -33 24 -33 6 0 -5 5 -7 12 -3 8 5 9 0 6 -14 -4
-13 -2 -20 3 -16 6 3 7 -5 3 -20 -9 -38 3 -32 21 10 82 196 -7 462 -190 565
-28 16 -62 41 -76 55 l-24 26 -2 324 c-2 233 0 323 8 318 8 -4 9 1 4 17 -12
38 -36 48 -65 28z"/>
<path d="M1205 1442 c10 -11 117 -42 144 -42 11 0 12 3 3 12 -6 6 -25 11 -42
10 -17 0 -28 2 -26 6 2 4 -6 8 -17 8 -12 1 -33 5 -47 9 -18 6 -22 5 -15 -3z"/>
<path d="M1196 1398 c-7 -29 -8 -53 -1 -46 11 10 23 68 15 68 -4 0 -10 -10
-14 -22z"/>
<path d="M1332 1370 c0 -14 2 -19 5 -12 2 6 2 18 0 25 -3 6 -5 1 -5 -13z"/>
<path d="M1227 1278 c-4 -12 -4 -24 -1 -27 6 -7 24 20 24 37 0 21 -17 13 -23
-10z"/>
<path d="M1330 1190 c0 -6 7 -10 15 -10 8 0 15 2 15 4 0 2 -7 6 -15 10 -8 3
-15 1 -15 -4z"/>
<path d="M685 1080 c-3 -5 -4 -10 -1 -10 2 0 12 -3 22 -7 11 -4 15 -3 10 5 -3
6 3 12 16 15 17 3 15 5 -9 6 -17 0 -35 -3 -38 -9z"/>
<path d="M640 1055 c0 -8 4 -15 10 -15 5 0 7 7 4 15 -4 8 -8 15 -10 15 -2 0
-4 -7 -4 -15z"/>
<path d="M707 1043 c-10 -9 -9 -23 1 -23 5 0 9 7 9 15 0 17 -1 18 -10 8z"/>
<path d="M1414 1032 c4 -7 14 -12 22 -12 9 0 14 -10 14 -27 l0 -26 -24 23
c-27 25 -68 29 -91 10 -21 -17 -19 -63 3 -83 22 -20 42 -22 42 -5 0 6 -3 8 -7
5 -9 -10 -43 23 -43 43 0 16 18 40 31 40 4 0 10 -17 12 -37 l4 -38 1 38 c2 43
10 46 40 14 23 -24 28 -42 15 -50 -5 -2 -3 -2 4 -1 8 2 13 -18 16 -64 2 -43 4
-25 5 51 1 66 -2 117 -7 117 -5 0 -17 3 -27 7 -12 4 -15 3 -10 -5z"/>
<path d="M2559 1023 c-3 -43 -3 -93 1 -93 16 0 -14 -152 -53 -270 -24 -74 -59
-187 -77 -250 -19 -63 -36 -118 -39 -122 -3 -4 -31 0 -61 9 -30 8 -89 23 -130
34 -41 11 -77 24 -81 30 -4 8 -9 8 -13 1 -3 -6 3 -13 14 -17 21 -7 24 -14 12
-30 -11 -15 -32 -17 -47 -5 -9 8 -14 7 -18 -4 -4 -9 3 -16 21 -21 37 -10 80
-15 65 -9 -14 6 -18 40 -5 47 4 3 22 2 40 0 26 -4 30 -8 21 -19 -6 -8 -8 -14
-3 -14 5 0 0 -7 -10 -15 -19 -14 -18 -15 11 -15 16 0 37 -8 47 -19 16 -17 15
-18 -21 -15 -52 4 -90 11 -105 20 -7 5 -19 9 -28 10 -8 2 -24 5 -35 8 -11 2
-24 5 -28 5 -10 1 1 61 15 78 5 6 17 9 25 6 11 -4 14 -3 9 6 -5 7 -14 10 -22
7 -8 -3 -14 1 -14 11 0 21 -9 12 -13 -13 -1 -10 -5 -23 -9 -29 -3 -5 -9 -25
-13 -42 -7 -36 -25 -42 -49 -17 -15 14 -16 14 -16 -3 0 -10 -7 -27 -15 -37 -8
-11 -15 -29 -14 -40 0 -20 1 -20 8 -1 7 18 8 17 14 -6 3 -13 4 -36 1 -49 -5
-22 -4 -23 6 -7 7 12 10 39 7 69 l-6 49 32 -2 c18 -2 37 -1 42 2 6 4 46 -5 90
-18 44 -13 68 -21 53 -19 -16 2 -28 -1 -28 -5 0 -5 27 -9 59 -9 33 0 63 -4 66
-10 3 -5 1 -10 -6 -10 -7 0 -9 -3 -6 -6 4 -4 12 -2 20 4 10 8 27 7 67 -3 30
-8 56 -12 58 -10 6 6 -46 26 -85 32 -18 3 -30 10 -27 15 3 5 -11 25 -31 44
-21 19 -36 37 -34 39 2 2 36 -4 74 -12 74 -16 126 -49 103 -66 -10 -6 -9 -7 2
-4 8 2 14 10 12 17 -1 6 5 10 15 8 10 -2 17 -9 16 -16 -6 -28 200 -119 246
-110 9 2 -6 10 -34 17 -90 24 -135 45 -183 88 -34 31 -42 42 -29 43 10 0 28
-5 39 -11 16 -8 19 -8 13 1 -5 9 -1 10 14 5 11 -3 21 -3 21 2 0 10 27 195 35
241 4 23 11 32 25 32 11 0 19 -5 18 -11 -2 -7 9 -15 25 -20 15 -4 27 -3 27 2
0 5 -9 9 -20 9 -11 0 -20 5 -20 10 0 6 41 10 103 10 l102 0 18 -37 c16 -31 16
-35 2 -23 -14 12 -15 10 -5 -15 6 -16 18 -34 28 -41 11 -8 12 -13 5 -14 -7 0
-13 -7 -13 -16 0 -11 5 -14 17 -10 10 4 14 4 10 0 -4 -4 1 -16 10 -27 17 -19
17 -20 0 -14 -21 8 -35 -19 -18 -36 8 -8 11 -7 11 4 1 8 7 3 15 -11 20 -36 18
-46 -5 -25 -11 10 -20 14 -20 9 0 -17 15 -31 38 -39 22 -6 22 -8 7 -25 -14
-16 -14 -18 0 -24 13 -5 13 -9 3 -26 -17 -27 -79 -50 -137 -50 -46 0 -48 1
-43 25 7 38 -21 61 -91 75 -34 6 -72 16 -85 21 -28 11 -63 -3 -41 -17 7 -4 26
-7 42 -6 15 1 49 -7 74 -18 25 -11 49 -18 53 -15 4 2 15 -2 26 -9 16 -12 17
-18 6 -40 -6 -15 -19 -29 -27 -32 -38 -15 -329 105 -318 132 3 7 0 14 -6 14
-6 0 -11 -10 -11 -22 0 -17 11 -28 38 -40 64 -30 160 -66 191 -73 41 -9 40
-25 -1 -26 -28 -1 -29 -2 -8 -6 19 -4 5 -11 -58 -32 -45 -15 -84 -30 -87 -33
-11 -11 72 11 150 39 44 16 89 28 100 28 21 0 48 -42 40 -62 -2 -7 0 -13 5
-13 20 0 10 59 -12 74 -21 15 -18 16 58 16 91 0 148 -15 140 -36 -3 -8 -1 -14
4 -14 5 0 7 -9 5 -21 -3 -13 0 -19 8 -16 7 2 13 15 15 30 4 33 -29 67 -65 68
-26 0 -24 2 14 19 29 13 44 27 49 44 6 24 -58 264 -74 275 -4 3 -8 20 -10 36
-1 17 -26 104 -54 195 -43 138 -51 176 -50 238 0 40 5 79 11 86 7 9 7 16 -1
24 -15 15 -48 16 -48 2 0 -5 -7 -10 -15 -10 -10 0 -7 -8 10 -26 21 -23 25 -37
25 -91 0 -50 10 -96 45 -201 25 -74 42 -138 39 -141 -8 -8 -332 -6 -340 2 -3
3 14 66 37 139 38 114 44 144 43 211 -1 72 0 77 20 78 17 1 18 2 4 6 -10 2
-18 13 -18 24 0 18 -19 28 -21 12z m192 -46 c-10 -9 -11 -8 -5 6 3 10 9 15 12
12 3 -3 0 -11 -7 -18z m-245 -474 c-4 -21 -9 -46 -12 -55 -3 -10 -1 -18 5 -18
6 0 11 15 11 34 0 19 4 37 9 40 13 9 21 -48 8 -57 -9 -6 -9 -10 1 -14 23 -9
12 -23 -18 -23 -26 0 -30 4 -30 28 0 21 -2 24 -10 12 -5 -8 -10 -10 -10 -4 0
6 6 17 14 23 8 7 18 26 21 42 10 43 18 36 11 -8z m-26 -109 c0 -8 5 -14 10
-14 6 0 10 5 10 10 0 6 9 10 21 10 15 0 19 -4 15 -16 -3 -9 -6 -27 -6 -40 0
-16 -6 -24 -17 -25 -11 0 -13 -3 -5 -6 18 -7 15 -30 -5 -38 -26 -10 -93 -13
-87 -3 3 4 0 8 -6 8 -6 0 5 19 24 42 20 23 36 46 36 52 -1 13 -30 -24 -30 -38
0 -5 -3 -7 -6 -4 -3 3 0 24 7 46 8 27 16 39 25 35 8 -3 14 -11 14 -19z"/>
<path d="M2655 1021 c-6 -5 -19 -11 -30 -14 -15 -5 17 -3 63 3 2 0 0 5 -3 10
-8 12 -18 13 -30 1z"/>
<path d="M637 989 c4 -13 8 -18 11 -10 2 7 -1 18 -6 23 -8 8 -9 4 -5 -13z"/>
<path d="M1255 978 c-7 -18 -11 -48 -9 -68 2 -19 4 -57 3 -85 -1 -27 -2 -68
-3 -90 0 -22 3 -160 8 -307 6 -190 5 -268 -3 -268 -5 0 -14 8 -19 18 -8 15
-53 253 -69 365 -3 20 -9 37 -13 37 -4 0 -4 -19 1 -42 13 -70 8 -100 -7 -43
l-14 50 5 -49 c3 -27 5 -55 5 -62 0 -8 7 -14 15 -14 8 0 15 -6 16 -12 3 -71
12 -148 19 -171 7 -22 5 -31 -12 -47 -35 -32 -78 -20 -78 21 0 10 -4 21 -10
24 -17 11 -11 -41 8 -61 26 -29 55 -28 85 2 20 20 27 23 27 11 0 -9 10 -23 22
-31 22 -16 22 -16 1 -16 -21 0 -76 -38 -58 -41 6 0 28 0 50 0 l40 1 -27 -15
c-17 -9 -28 -25 -29 -38 -1 -21 -1 -20 -8 3 -8 29 -47 46 -84 36 -19 -4 -29
-16 -36 -43 -6 -20 -8 -39 -5 -42 8 -9 24 22 24 47 0 50 72 40 91 -13 14 -38
29 -46 29 -16 0 29 54 85 76 79 11 -3 25 0 31 7 6 7 34 15 61 19 57 7 65 19
51 71 -12 44 -1 86 11 45 5 -14 8 -46 9 -72 1 -39 -2 -48 -16 -50 -10 0 -23
-2 -30 -2 -24 -2 -26 -16 -2 -16 41 0 52 -14 47 -59 -5 -53 8 -53 17 -1 4 26
3 46 -5 54 -7 10 -8 16 -1 21 7 4 9 53 5 140 -3 89 -2 135 5 140 6 3 11 13 11
22 0 9 6 24 14 32 8 9 15 27 16 41 3 35 -11 91 -21 84 -5 -3 -9 6 -9 20 0 14
-4 26 -10 26 -5 0 -9 3 -9 8 1 4 1 9 0 12 -1 3 -4 36 -5 73 -2 52 -7 71 -22
82 -22 16 -58 20 -49 5 4 -6 10 -8 15 -5 4 3 10 -5 13 -16 3 -12 10 -18 16
-14 6 3 11 0 11 -9 0 -24 -11 -46 -21 -40 -5 3 -9 0 -9 -5 0 -6 5 -11 10 -11
6 0 10 -5 10 -11 0 -5 -4 -7 -10 -4 -21 13 -9 -33 15 -55 26 -24 30 -60 9 -67
-7 -2 -10 5 -7 20 6 29 -29 67 -61 67 -18 0 -19 2 -6 11 10 7 11 12 4 15 -7 3
-10 14 -7 24 4 14 0 20 -11 20 -10 0 -16 9 -16 24 0 28 16 43 23 24 3 -7 6 17
6 55 1 58 -1 67 -17 67 -10 0 -23 5 -30 12 -9 9 -12 5 -12 -20 0 -18 4 -32 9
-32 5 0 7 10 3 23 -5 22 -5 22 16 3 31 -27 29 -66 -2 -66 -23 0 -24 -4 -23
-47 1 -31 7 -53 19 -65 23 -23 23 -47 1 -63 -20 -15 -26 -100 -8 -115 9 -8 11
-4 7 15 -5 28 15 35 25 8 4 -11 -3 -24 -23 -41 -16 -13 -21 -22 -11 -18 21 7
49 -3 41 -15 -3 -5 -14 -9 -25 -9 -10 0 -19 -4 -19 -10 0 -5 -9 -10 -21 -10
-12 0 -17 -4 -14 -11 4 -6 13 -8 21 -5 10 4 14 -2 14 -20 0 -28 19 -53 37 -47
6 2 13 -4 16 -14 3 -10 5 1 6 24 1 34 -3 43 -19 48 -11 4 -18 10 -15 15 3 5 2
10 -2 13 -5 2 -3 2 4 1 20 -5 36 23 25 43 -7 13 -6 24 4 38 12 16 14 17 14 2
0 -9 4 -17 10 -17 6 0 5 10 -2 25 -6 14 -17 25 -24 25 -17 0 -37 37 -30 56 3
8 11 14 18 14 9 0 9 -3 0 -12 -14 -14 -16 -32 -3 -23 5 3 12 -3 14 -12 3 -10
4 -1 2 20 -4 40 2 44 28 25 12 -10 17 -31 18 -81 1 -37 4 -65 7 -62 3 3 11 0
19 -6 10 -9 13 -5 12 22 0 26 -2 30 -8 15 -6 -17 -8 -17 -14 -4 -3 9 2 23 12
32 31 28 41 19 41 -34 0 -38 -4 -50 -15 -50 -10 0 -15 -10 -15 -27 0 -15 -10
-37 -22 -50 -22 -24 -22 -25 -5 -54 24 -43 22 -63 -5 -55 -13 3 -29 6 -35 6
-7 0 -13 8 -13 19 0 14 -6 17 -25 13 -21 -4 -24 -1 -18 13 4 12 3 16 -5 12 -6
-4 -13 1 -16 10 -2 10 -2 -2 0 -27 9 -78 10 -84 23 -88 9 -3 8 -10 -4 -28 -17
-26 -12 -64 8 -64 7 0 -1 -7 -18 -16 -33 -17 -75 -6 -75 21 0 20 16 19 24 -1
4 -9 9 -14 13 -10 3 3 -1 14 -9 23 -12 15 -17 63 -22 258 -4 156 -2 234 4 224
10 -17 14 -84 8 -129 -2 -16 2 -24 9 -23 7 2 10 -3 7 -11 -3 -8 -1 -16 3 -19
5 -3 9 34 9 83 -1 53 -5 88 -11 87 -17 -3 -17 52 -1 69 9 8 16 19 16 24 0 17
-32 -2 -40 -24 -7 -15 -9 -8 -8 29 0 28 3 40 5 28 2 -13 9 -23 14 -23 5 0 2
16 -6 36 -20 48 -19 61 3 41 29 -26 32 -21 30 43 -3 57 -10 72 -23 50 -14 -23
-23 -7 -19 38 3 26 7 53 9 60 9 26 -7 10 -20 -20z m34 -130 c0 -31 -1 -31 -10
-10 -5 13 -7 28 -3 33 10 16 14 9 13 -23z m82 -463 c-1 -15 -24 -12 -29 3 -3
9 2 13 12 10 10 -1 17 -7 17 -13z m86 -47 c-3 -7 -5 -2 -5 12 0 14 2 19 5 13
2 -7 2 -19 0 -25z m-82 -68 c3 -5 12 -7 21 -3 12 4 14 -4 13 -46 -2 -51 -2
-51 -36 -51 -40 0 -41 9 -8 40 27 25 35 51 10 30 -9 -8 -15 -8 -15 -2 0 6 -3
17 -6 26 -7 17 11 22 21 6z m35 -120 c0 -5 -9 -10 -21 -10 -11 0 -17 5 -14 10
3 6 13 10 21 10 8 0 14 -4 14 -10z m-143 -37 c2 -6 -7 -8 -23 -5 -19 3 -22 7
-12 13 15 10 30 7 35 -8z"/>
<path d="M2649 979 c16 -6 28 -6 35 1 7 7 -1 10 -24 9 -33 0 -34 -1 -11 -10z"/>
<path d="M1943 953 c9 -2 25 -2 35 0 9 3 1 5 -18 5 -19 0 -27 -2 -17 -5z"/>
<path d="M1765 920 c-3 -5 -1 -10 4 -10 6 0 11 5 11 10 0 6 -2 10 -4 10 -3 0
-8 -4 -11 -10z"/>
<path d="M1392 850 c0 -14 2 -19 5 -12 2 6 2 18 0 25 -3 6 -5 1 -5 -13z"/>
<path d="M1401 754 c0 -11 3 -14 6 -6 3 7 2 16 -1 19 -3 4 -6 -2 -5 -13z"/>
<path d="M2200 751 c0 -6 7 -14 15 -17 8 -4 13 -9 11 -13 -3 -4 -1 -13 4 -21
7 -11 9 -9 7 8 -1 24 -37 65 -37 43z"/>
<path d="M1760 740 c8 -5 20 -10 25 -10 6 0 3 5 -5 10 -8 5 -19 10 -25 10 -5
0 -3 -5 5 -10z"/>
<path d="M1915 740 c-3 -5 -1 -10 4 -10 6 0 11 5 11 10 0 6 -2 10 -4 10 -3 0
-8 -4 -11 -10z"/>
<path d="M2097 728 c11 -13 30 -41 41 -63 12 -22 21 -34 22 -26 0 19 -60 111
-73 111 -6 0 -1 -10 10 -22z"/>
<path d="M1676 703 c-6 -14 -5 -15 5 -6 7 7 10 15 7 18 -3 3 -9 -2 -12 -12z"/>
<path d="M1390 700 c0 -5 5 -10 10 -10 6 0 10 5 10 10 0 6 -4 10 -10 10 -5 0
-10 -4 -10 -10z"/>
<path d="M1765 669 c-4 -6 -5 -12 -2 -15 2 -3 7 2 10 11 7 17 1 20 -8 4z"/>
<path d="M1291 654 c0 -11 3 -14 6 -6 3 7 2 16 -1 19 -3 4 -6 -2 -5 -13z"/>
<path d="M1526 653 c-6 -14 -5 -15 5 -6 7 7 10 15 7 18 -3 3 -9 -2 -12 -12z"/>
<path d="M831 614 c0 -11 3 -14 6 -6 3 7 2 16 -1 19 -3 4 -6 -2 -5 -13z"/>
<path d="M2070 615 c0 -8 2 -15 4 -15 2 0 6 7 10 15 3 8 1 15 -4 15 -6 0 -10
-7 -10 -15z"/>
<path d="M710 517 c0 -8 -8 -18 -17 -20 -17 -4 -17 -5 0 -6 14 -1 17 -11 18
-53 2 -146 25 -268 50 -268 4 0 2 12 -6 27 -7 16 -18 96 -25 178 -7 83 -14
152 -16 154 -2 2 -4 -3 -4 -12z"/>
<path d="M2211 514 c0 -11 3 -14 6 -6 3 7 2 16 -1 19 -3 4 -6 -2 -5 -13z"/>
<path d="M647 513 c-12 -12 -7 -23 11 -23 13 0 14 2 3 9 -11 7 -11 9 0 14 8 3
9 6 3 6 -6 1 -14 -2 -17 -6z"/>
<path d="M813 498 c3 -13 15 -77 26 -144 25 -143 39 -190 54 -175 7 7 6 15 -2
25 -7 8 -10 20 -6 26 3 5 2 10 -2 10 -10 0 -17 40 -15 90 1 34 -44 190 -55
190 -3 0 -3 -10 0 -22z"/>
<path d="M582 470 c0 -14 2 -19 5 -12 2 6 2 18 0 25 -3 6 -5 1 -5 -13z"/>
<path d="M2600 454 c0 -21 4 -33 10 -29 6 3 10 1 10 -6 0 -7 3 -9 6 -6 4 4 1
13 -6 22 -7 8 -10 24 -7 35 3 11 1 20 -4 20 -5 0 -9 -16 -9 -36z"/>
<path d="M750 476 c0 -2 9 -6 20 -9 11 -3 20 -1 20 4 0 5 -9 9 -20 9 -11 0
-20 -2 -20 -4z"/>
<path d="M1400 470 c0 -5 5 -10 10 -10 6 0 10 5 10 10 0 6 -4 10 -10 10 -5 0
-10 -4 -10 -10z"/>
<path d="M643 425 c0 -27 2 -38 4 -22 2 15 2 37 0 50 -2 12 -4 0 -4 -28z"/>
<path d="M1426 444 c-4 -10 -2 -13 6 -8 8 5 9 0 5 -16 -4 -15 -2 -19 4 -13 5
5 11 19 14 31 5 25 -19 31 -29 6z"/>
<path d="M1385 439 c-4 -6 -5 -12 -2 -15 2 -3 7 2 10 11 7 17 1 20 -8 4z"/>
<path d="M573 395 c0 -22 2 -30 4 -17 2 12 2 30 0 40 -3 9 -5 -1 -4 -23z"/>
<path d="M1230 325 c0 -54 3 -96 6 -93 7 8 6 179 -1 186 -3 3 -5 -39 -5 -93z"/>
<path d="M1285 378 c0 -25 7 -53 14 -62 10 -12 10 -19 -3 -38 -22 -31 -20 -77
4 -113 l20 -30 -1 60 c-2 55 -2 56 -8 20 -6 -34 -8 -37 -14 -18 -8 22 0 73 12
73 11 0 12 48 1 55 -6 3 -10 20 -10 36 0 18 4 28 10 24 6 -3 10 -1 10 4 0 6
-6 11 -14 11 -8 0 -16 6 -19 13 -2 6 -3 -9 -2 -35z"/>
<path d="M755 401 c-3 -5 -1 -12 5 -16 5 -3 10 1 10 9 0 18 -6 21 -15 7z"/>
<path d="M784 391 c0 -11 4 -17 8 -15 4 3 8 12 8 20 0 8 -4 14 -8 14 -4 0 -8
-9 -8 -19z"/>
<path d="M1534 395 c-3 -8 -4 -20 -2 -27 3 -7 7 -1 10 15 6 29 1 36 -8 12z"/>
<path d="M1407 380 c3 -11 7 -20 9 -20 2 0 4 9 4 20 0 11 -4 20 -9 20 -5 0 -7
-9 -4 -20z"/>
<path d="M1969 383 c-12 -16 -12 -17 1 -6 8 6 26 13 40 16 l25 4 -26 2 c-15 0
-33 -7 -40 -16z"/>
<path d="M1065 381 c-3 -5 -2 -12 3 -15 5 -3 9 1 9 9 0 17 -3 19 -12 6z"/>
<path d="M2590 370 c-1 -14 -3 -44 -6 -67 -3 -28 -1 -43 6 -43 6 0 8 4 5 10
-3 5 -2 26 4 46 6 21 6 44 1 57 -9 21 -9 21 -10 -3z"/>
<path d="M630 328 c-1 -45 -12 -108 -25 -143 -8 -20 -8 -20 8 0 9 11 17 28 17
38 0 9 3 17 8 17 4 0 7 29 7 65 0 36 -3 65 -7 65 -5 0 -8 -19 -8 -42z"/>
<path d="M890 348 c0 -9 5 -20 10 -23 13 -8 13 5 0 25 -8 13 -10 13 -10 -2z"/>
<path d="M1695 350 c3 -5 11 -10 16 -10 6 0 7 5 4 10 -3 6 -11 10 -16 10 -6 0
-7 -4 -4 -10z"/>
<path d="M1952 340 c0 -14 2 -19 5 -12 2 6 2 18 0 25 -3 6 -5 1 -5 -13z"/>
<path d="M2255 350 c3 -5 8 -10 11 -10 2 0 4 5 4 10 0 6 -5 10 -11 10 -5 0 -7
-4 -4 -10z"/>
<path d="M555 295 c-4 -31 -5 -58 -3 -61 3 -2 8 21 12 52 4 31 5 59 2 61 -2 3
-8 -21 -11 -52z"/>
<path d="M2767 319 c4 -13 8 -18 11 -10 2 7 -1 18 -6 23 -8 8 -9 4 -5 -13z"/>
<path d="M1570 315 c-7 -8 -8 -15 -2 -15 5 0 15 7 22 15 7 8 8 15 2 15 -5 0
-15 -7 -22 -15z"/>
<path d="M1420 300 c0 -5 5 -10 10 -10 6 0 10 5 10 10 0 6 -4 10 -10 10 -5 0
-10 -4 -10 -10z"/>
<path d="M1071 284 c0 -11 3 -14 6 -6 3 7 2 16 -1 19 -3 4 -6 -2 -5 -13z"/>
<path d="M1535 280 c-3 -5 -15 -10 -26 -10 -10 0 -19 -6 -19 -13 0 -17 97
-115 122 -123 25 -8 23 -17 -9 -36 -44 -26 -110 -98 -90 -98 9 0 31 9 49 20
18 11 29 20 25 20 -14 0 19 40 52 65 19 13 28 26 22 30 -6 3 -11 1 -11 -5 0
-7 -10 -3 -22 9 -13 12 -32 28 -43 35 -19 14 -19 16 -2 33 9 9 17 12 17 6 0
-6 -6 -13 -12 -16 -8 -2 -9 -8 -4 -13 5 -5 11 -4 13 4 3 7 12 20 21 29 16 16
16 16 0 11 -9 -4 -18 -2 -21 5 -3 9 -8 8 -21 -2 -15 -13 -19 -13 -27 0 -5 8
-8 24 -6 37 5 24 2 28 -8 12z"/>
<path d="M1055 250 c-3 -5 -1 -10 4 -10 6 0 11 5 11 10 0 6 -2 10 -4 10 -3 0
-8 -4 -11 -10z"/>
<path d="M1646 241 c-3 -4 6 -6 19 -3 14 2 25 6 25 8 0 8 -39 4 -44 -5z"/>
<path d="M905 230 c3 -5 8 -10 11 -10 2 0 4 5 4 10 0 6 -5 10 -11 10 -5 0 -7
-4 -4 -10z"/>
<path d="M2014 223 c4 -4 13 -8 19 -8 17 0 26 -59 12 -79 -7 -9 -17 -16 -23
-16 -5 0 -12 -6 -15 -14 -4 -9 -16 -11 -44 -7 -34 6 -38 10 -41 39 -3 31 -22
47 -22 18 0 -21 -15 -28 -45 -20 -31 8 -33 21 -2 27 19 4 18 4 -5 6 -18 1 -28
-4 -28 -13 0 -8 -5 -18 -12 -22 -8 -5 -9 -2 -5 9 6 16 4 16 -24 2 -27 -14 -33
-14 -59 -1 -17 8 -30 10 -30 6 0 -19 41 -29 129 -31 99 -2 93 2 93 -69 -1 -35
-1 -35 6 -5 6 26 12 30 46 33 28 2 42 -1 48 -13 5 -8 13 -13 19 -10 5 4 9 -1
9 -9 0 -9 4 -16 10 -16 5 0 7 -6 4 -14 -4 -11 3 -12 38 -4 24 5 78 12 120 17
42 4 88 15 101 24 30 19 83 16 79 -5 -1 -11 6 -13 29 -10 22 3 27 7 18 13 -10
6 -10 9 -2 9 7 0 10 7 6 16 -5 13 -7 13 -14 2 -5 -7 -9 -8 -9 -3 0 6 -46 9
-124 7 -99 -3 -130 0 -155 13 -18 9 -29 21 -25 26 4 7 9 8 13 1 3 -5 62 -11
131 -13 158 -4 265 -1 257 8 -4 3 -20 6 -37 5 -16 0 -30 3 -30 7 0 5 -12 6
-26 3 -20 -4 -25 -2 -19 8 5 8 3 11 -6 8 -8 -3 -13 -10 -12 -16 4 -16 -43 -20
-74 -6 -53 23 -96 34 -138 34 -39 0 -43 2 -51 33 -9 30 -12 32 -64 35 -30 2
-51 0 -46 -5z m96 -22 c15 -28 13 -31 -19 -31 -23 0 -30 5 -33 25 -4 21 -1 25
18 25 13 0 28 -9 34 -19z m-4 -70 c-19 -21 -56 -24 -56 -6 0 19 11 25 43 25
29 0 30 -1 13 -19z m134 -2 c25 -6 18 -6 -25 -2 -33 3 -64 9 -70 14 -9 9 24 5
95 -12z m-140 -38 c0 -5 12 -12 27 -16 21 -5 24 -8 13 -15 -10 -6 -23 -4 -38
6 -13 8 -31 14 -40 13 -31 -3 -43 1 -37 11 8 12 75 13 75 1z m8 -44 c16 -18
15 -18 -18 -15 -23 2 -36 9 -38 20 -4 23 33 20 56 -5z m127 4 c-31 -13 -105
-20 -105 -11 0 11 22 15 80 17 31 1 39 -1 25 -6z"/>
<path d="M820 210 c0 -5 5 -10 10 -10 6 0 10 5 10 10 0 6 -4 10 -10 10 -5 0
-10 -4 -10 -10z"/>
<path d="M1130 210 c0 -5 5 -10 11 -10 5 0 7 5 4 10 -3 6 -8 10 -11 10 -2 0
-4 -4 -4 -10z"/>
<path d="M1635 210 c-3 -5 -2 -10 4 -10 5 0 13 5 16 10 3 6 2 10 -4 10 -5 0
-13 -4 -16 -10z"/>
<path d="M910 191 c0 -5 7 -11 14 -14 10 -4 13 -1 9 9 -6 15 -23 19 -23 5z"/>
<path d="M2570 196 c0 -2 7 -7 16 -10 8 -3 12 -2 9 4 -6 10 -25 14 -25 6z"/>
<path d="M830 174 c0 -8 5 -12 10 -9 6 3 10 10 10 16 0 5 -4 9 -10 9 -5 0 -10
-7 -10 -16z"/>
<path d="M2218 183 c7 -3 16 -2 19 1 4 3 -2 6 -13 5 -11 0 -14 -3 -6 -6z"/>
<path d="M855 150 c-3 -5 -1 -10 4 -10 6 0 11 5 11 10 0 6 -2 10 -4 10 -3 0
-8 -4 -11 -10z"/>
<path d="M2655 150 c3 -4 16 -10 30 -12 13 -3 22 -2 20 2 -3 4 -16 10 -30 12
-13 3 -22 2 -20 -2z"/>
<path d="M990 138 c0 -4 12 -10 28 -14 47 -10 48 -12 7 -13 -28 -1 -36 -4 -26
-10 15 -10 139 -6 149 4 3 3 -14 5 -37 5 -26 0 -40 4 -36 10 3 6 16 10 27 10
12 0 19 3 16 6 -9 8 -128 10 -128 2z"/>
<path d="M1153 143 c-13 -2 -23 -9 -23 -14 0 -10 32 -4 60 12 13 7 13 8 0 7
-8 0 -25 -3 -37 -5z"/>
<path d="M1350 97 c-8 -7 -16 -28 -17 -47 -2 -28 -1 -32 8 -17 5 9 20 17 32
18 21 0 21 1 2 9 -11 5 -15 9 -8 9 6 1 18 4 27 7 13 5 16 -2 16 -35 0 -46 15
-54 30 -16 14 37 2 54 -41 61 -21 4 -36 10 -33 15 7 12 2 11 -16 -4z"/>
<path d="M1785 100 c-25 -6 -21 -8 24 -9 30 0 51 2 47 6 -10 10 -37 11 -71 3z"/>
<path d="M970 90 c0 -4 7 -13 16 -21 10 -8 14 -23 12 -41 -4 -24 -1 -28 19
-28 25 0 29 16 13 52 -11 22 -60 54 -60 38z"/>
<path d="M1710 89 c0 -5 -4 -8 -8 -5 -5 3 -9 -1 -9 -8 0 -10 6 -10 29 1 33 17
35 23 8 23 -11 0 -20 -5 -20 -11z"/>
<path d="M2478 93 c17 -2 47 -2 65 0 17 2 3 4 -33 4 -36 0 -50 -2 -32 -4z"/>
<path d="M1298 52 c-10 -17 -18 -36 -18 -44 0 -7 5 -4 12 7 6 11 15 23 21 26
5 4 7 14 5 23 -2 14 -7 11 -20 -12z"/>
<path d="M1837 73 c-4 -3 -7 -11 -7 -17 0 -6 5 -5 12 2 6 6 9 14 7 17 -3 3 -9
2 -12 -2z"/>
<path d="M2490 76 c0 -2 7 -6 15 -10 8 -3 15 -1 15 4 0 6 -7 10 -15 10 -8 0
-15 -2 -15 -4z"/>
<path d="M1262 30 c0 -19 2 -27 5 -17 2 9 2 25 0 35 -3 9 -5 1 -5 -18z"/>
<path d="M1635 50 c4 -6 11 -8 16 -5 14 9 11 15 -7 15 -8 0 -12 -5 -9 -10z"/>
<path d="M1943 33 c1 -18 5 -33 10 -33 10 0 9 32 -3 50 -7 11 -9 6 -7 -17z"/>
<path d="M915 40 c-3 -5 -1 -10 4 -10 6 0 11 5 11 10 0 6 -2 10 -4 10 -3 0 -8
-4 -11 -10z"/>
<path d="M2600 27 c-36 -12 -58 -23 -48 -25 9 -2 33 4 53 12 20 9 41 13 46 10
5 -3 9 -1 9 5 0 5 12 12 28 14 26 4 26 4 2 5 -14 1 -54 -9 -90 -21z"/>
<path d="M830 24 c0 -8 5 -12 10 -9 6 4 8 11 5 16 -9 14 -15 11 -15 -7z"/>
<path d="M1368 29 c-10 -5 -18 -14 -18 -19 0 -6 8 -10 18 -9 11 0 12 2 4 6
-10 4 -9 8 5 19 21 16 16 18 -9 3z"/>
<path d="M600 21 c0 -6 4 -13 10 -16 6 -3 7 1 4 9 -7 18 -14 21 -14 7z"/>
<path d="M746 13 c-6 -14 -5 -15 5 -6 7 7 10 15 7 18 -3 3 -9 -2 -12 -12z"/>
<path d="M876 21 c-4 -7 -5 -15 -2 -18 9 -9 19 4 14 18 -4 11 -6 11 -12 0z"/>
<path d="M1131 14 c0 -11 3 -14 6 -6 3 7 2 16 -1 19 -3 4 -6 -2 -5 -13z"/>
<path d="M2370 10 c-33 -8 -32 -8 12 -6 25 0 44 4 41 9 -2 4 -7 6 -11 6 -4 -1
-23 -5 -42 -9z"/>
<path d="M2258 3 c7 -3 16 -2 19 1 4 3 -2 6 -13 5 -11 0 -14 -3 -6 -6z"/>
</g>
</svg>
