<svg xmlns="http://www.w3.org/2000/svg" xmlns:xlink="http://www.w3.org/1999/xlink" width="446" height="451.267" viewBox="0 0 446 451.267">
  <defs>
    <linearGradient id="linear-gradient" x1="1.263" y1="1.132" x2="-0.138" y2="-0.079" gradientUnits="objectBoundingBox">
      <stop offset="0" stop-color="#bdce2f"/>
      <stop offset="1" stop-color="#30adbc"/>
    </linearGradient>
  </defs>
  <g id="Registered-Office" transform="translate(-964 -2380)">
    <g id="_506514848" transform="translate(964 2380)">
      <path id="Union_24" data-name="Union 24" d="M-3752.246-495.209c-9.2,0-16.754-4.823-16.754-14.088V-932.388c0-9.392,7.615-14.088,16.754-14.088h273.2c6.664,0,11.423,2.094,14.216,6.092,3.363,4.823,2.538,9.71,2.538,17.706V-803.69c3.808-.317,7.3-1.4,11.486-1.776,43.535-3.618,80.976,12.629,105.916,46.58,15.676,21.323,21.895,42.519,21.895,70.632,0,22.02-18.721,61.176-30.335,80.722l-62.508,92.652c-6.6,8.885-14.025,20.879-23.925,19.228-11.232-1.9-15.421-16.372-22.528-21.577,0,10.344.317,22.021-16.754,22.021Zm176.293-158.651c9.773,0,16.754,6.409,16.754,13.2v116.322h68.728c0-36.87,3.364-27.542-9.2-46.326-3.237-4.95-5.711-9.012-8.948-13.961-3.364-4.95-5.965-9.645-9.011-14.786-11.74-19.355-32.746-59.97-34.522-81.8-6.282,0-21.894.761-27.034-.318a14.335,14.335,0,0,1-11.359-14.405c.888-17.642,21.132-14.343,39.282-14.343,1.206-5.393,2.094-10.28,3.808-15.548,1.523-4.7,4-9.518,4.95-13.517-8.187,0-16.436-.063-24.623,0-9.773,0-14.406.761-19.419-4.443a14.226,14.226,0,0,1-1.777-17.642c3.047-5.013,8.695-7.044,16.754-7.044h35.285c5.585,0,7.679,1.4,12.311,1.777a32.212,32.212,0,0,1,7.552-8.313c8.948-6.854,9.329-9.328,22.465-16.309,1.968-1.079,3.49-.952,3.49-3.554V-917.412h-250.352v393.074h68.791V-640.66c0-7.425,7.362-13.2,16.754-13.2Zm-67.9,129.522h56.417V-624.8h-56.417Zm135.615-216.908c-11.929,16.119-15.738,32.428-15.738,52.99,0,33.38,55.338,114.1,79.452,146.213,1.777,2.348,5.331,6.156,6.029,8.948,2.476-1.713,17.452-22.719,20.117-26.653,2.221-3.237,4-5.521,6.155-8.821l18.721-27.985c8.187-12.375,15.421-26.02,22.846-38.838,1.713-2.982,3.49-6.6,5.013-9.963,14.152-30.462,20.244-48.928,6.79-81.039-3.617-8.5-11.168-19.039-17.261-25.067-19.546-19.419-38.9-25.829-66.76-25.829C-3468.959-777.291-3493.391-761.426-3508.242-741.245Zm26.59,50.324c0-17.9,10.726-32.491,26.083-39.98,16.563-8,36.3-2.982,48.611,9.393,27.351,27.287,6.726,73.8-29.764,73.8C-3461.471-647.7-3481.652-666.425-3481.652-690.921Zm32.809-10.344c-2.6,2.856-3.744,5.712-3.744,10.344,0,18.848,29.064,19.418,29.064.889,0-11.322-7.037-15.874-14.052-15.874A15.476,15.476,0,0,0-3448.842-701.265Zm-252.318,20.053c-5.331,0-13.2-5.585-13.2-14.088a13.807,13.807,0,0,1,5.838-11.74c6.981-5.268,37.125-3.237,48.8-3.237,27.415,0,21.577,29.065,4.442,29.065Zm.888-58.129a14.276,14.276,0,0,1-14.088-14.152c0-10.534,8.63-14.976,19.419-14.976h33.443c30.842,0,22.719,29.128,6.219,29.128Zm124.319-58.193c-10.851,0-17.388-10.6-13.263-20.307,4.633-11.169,18.086-7.932,26.463-7.932,4.569,0,5.267-.889,8.757-.825,3.11.127,4.379.825,8.885.825,6.536,0,13.263-1.65,19.419.825,14.025,5.648,10.217,27.415-5.331,27.415Zm-124.319,0a14.221,14.221,0,0,1-14.088-14.088c0-18.53,22.338-14.151,28.24-14.151,4.506,0,5.2-.889,8.758-.825,3.046.127,4.379.825,8.821.825,4.57,0,5.268-.889,8.758-.825,28.621.761,20.815,29.065,4.505,29.065Zm124.319-58.193a14.343,14.343,0,0,1-12.692-21.512c3.871-7.108,11.232-7.108,21.576-7.362,2.666-.127,3.808.7,7.87.7l10.47-.7c2.221.063,3.427.7,7.108.7,5.52,0,9.2-.825,12.438-.19,18.023,3.744,15.1,28.366-1.84,28.366Zm-124.319,0a14.1,14.1,0,0,1-14.088-14.088c0-6.536,4.7-12.374,10.028-13.771,7.615-1.967,14.913-.317,21.7-.317l10.471-.7c2.285.063,3.427.7,7.171.7l12.375-.127c17.388,2.982,14.659,28.3-2.666,28.3Z" transform="translate(3769 946.476)" fill="url(#linear-gradient)"/>
    </g>
  </g>
</svg>
