<?xml version="1.0" standalone="no"?>
<!DOCTYPE svg PUBLIC "-//W3C//DTD SVG 20010904//EN"
 "http://www.w3.org/TR/2001/REC-SVG-20010904/DTD/svg10.dtd">
<svg version="1.0" xmlns="http://www.w3.org/2000/svg"
 width="300.000000pt" height="214.000000pt" viewBox="0 0 300.000000 214.000000"
 preserveAspectRatio="xMidYMid meet">
<metadata>
Created by potrace 1.10, written by Peter Selinger 2001-2011
</metadata>
<g transform="translate(0.000000,214.000000) scale(0.100000,-0.100000)"
fill="#8fbc8f" stroke="none">
<path d="M18 1615 l-3 -514 24 -6 c28 -7 40 1 14 9 -18 6 -19 21 -16 344 3
418 9 651 15 657 3 3 439 5 969 5 530 0 1186 0 1457 0 l492 0 1 -243 c0 -133
3 -374 5 -536 5 -272 4 -295 -13 -314 -12 -14 -13 -18 -3 -12 13 8 13 7 1 -8
-11 -14 -11 -20 0 -34 11 -15 10 -14 -9 1 -12 11 -22 14 -22 8 0 -11 38 -42
52 -42 4 0 7 270 8 600 l0 600 -1485 0 -1485 0 -2 -515z"/>
<path d="M652 1728 c-17 -17 -15 -43 8 -88 l20 -40 28 17 c38 24 40 26 13 18
-16 -5 -21 -4 -17 4 4 6 14 11 22 11 13 0 12 7 -6 36 -12 19 -19 38 -16 41 8
9 25 -15 72 -103 43 -81 41 -106 -9 -112 -21 -3 -32 5 -56 39 -18 25 -31 35
-31 26 0 -10 3 -17 8 -17 4 0 16 -14 27 -30 14 -21 28 -30 47 -30 28 0 58 23
58 44 0 19 -25 73 -63 136 -27 44 -39 56 -63 58 -16 2 -35 -3 -42 -10z m43
-29 c9 -17 14 -37 11 -45 -9 -24 -33 -16 -46 15 -10 24 -9 33 2 45 17 20 15
21 33 -15z"/>
<path d="M1455 1650 c-17 -19 -18 -22 -2 -37 16 -16 19 -16 54 4 21 12 39 26
41 32 5 15 -24 25 -45 16 -12 -5 -14 -9 -5 -12 18 -7 15 -21 -9 -34 -32 -16
-48 4 -24 31 10 11 16 20 13 20 -3 0 -13 -9 -23 -20z"/>
<path d="M2411 1626 c-10 -12 -10 -22 0 -50 7 -19 16 -33 21 -30 5 3 6 10 3
15 -4 5 -3 9 2 10 4 0 16 2 26 4 20 4 52 -48 43 -71 -8 -21 -43 -17 -60 8 -9
12 -16 18 -16 12 0 -18 37 -46 56 -42 38 7 39 33 3 94 -37 62 -57 75 -78 50z
m59 -40 c0 -5 -7 -1 -15 10 -8 10 -14 24 -14 29 0 6 6 1 14 -9 8 -11 15 -24
15 -30z m-32 -2 c-10 -10 -28 6 -28 24 0 15 1 15 17 -1 9 -9 14 -19 11 -23z"/>
<path d="M204 1601 c-11 -5 -33 -24 -48 -42 -26 -30 -27 -36 -20 -98 3 -36 10
-73 15 -81 9 -14 5 45 -7 110 -3 18 5 36 27 63 26 32 36 37 73 37 53 0 81 -27
94 -90 12 -55 12 -129 0 -136 -4 -3 -6 -9 -3 -14 3 -5 -5 -16 -17 -24 -25 -18
-94 -21 -132 -6 -14 5 -26 6 -26 1 0 -27 132 -28 170 -1 26 18 27 24 29 104 2
89 -8 124 -47 159 -23 21 -79 30 -108 18z"/>
<path d="M995 1544 l-76 -66 28 -18 c33 -20 80 -73 96 -108 10 -21 8 -27 -13
-44 -14 -10 -46 -36 -71 -58 -26 -21 -58 -42 -72 -45 -35 -9 -82 18 -97 56
-12 27 -11 36 6 67 10 20 41 61 68 91 40 45 35 42 -23 -15 -65 -66 -71 -75
-71 -114 0 -33 6 -48 29 -71 42 -41 97 -41 146 2 37 33 42 32 24 -4 -10 -21
-10 -21 6 -2 8 11 13 25 11 31 -10 25 22 21 92 -11 74 -35 81 -42 60 -64 -11
-11 -9 -12 8 -3 38 20 47 -14 14 -55 -11 -14 -20 -33 -20 -42 0 -13 -11 -16
-55 -16 -47 0 -55 3 -55 18 0 10 -13 32 -29 48 -25 24 -37 29 -81 29 -76 0
-150 43 -163 95 -4 18 -5 17 -6 -3 -1 -14 11 -36 27 -52 46 -45 30 -64 -70
-83 -64 -13 -88 -23 -105 -42 -33 -37 -30 -80 7 -117 32 -32 36 -32 138 -12
26 5 32 3 32 -11 0 -10 26 -46 58 -80 31 -34 69 -77 84 -97 15 -20 42 -46 60
-59 25 -17 21 -9 -19 32 -29 30 -53 61 -53 69 0 8 21 36 47 62 56 56 51 64 -7
12 -22 -20 -44 -33 -48 -29 -4 4 9 21 29 39 l37 31 -24 18 c-14 10 -21 24 -18
32 7 17 -12 19 -68 6 -47 -11 -55 -2 -70 78 -9 45 -9 64 -1 72 14 14 141 24
178 15 17 -4 31 -18 39 -38 12 -28 11 -35 -5 -62 -10 -16 -28 -35 -39 -41 -21
-11 -18 -15 53 -79 42 -37 83 -78 92 -92 16 -25 16 -26 -26 -62 -72 -62 -82
-119 -31 -175 20 -21 35 -27 66 -27 23 1 51 6 63 13 31 17 244 210 238 215 -7
7 -64 -39 -110 -88 -65 -68 -153 -130 -187 -130 -40 0 -88 48 -88 87 0 23 17
47 70 104 38 41 70 75 70 77 0 1 -9 -3 -20 -10 -18 -11 -25 -7 -72 41 -31 31
-45 51 -33 47 11 -4 51 -14 88 -23 37 -8 80 -25 94 -37 52 -42 93 -84 93 -95
0 -6 -16 6 -35 28 -23 25 -44 39 -60 39 -24 -1 -23 -3 22 -52 25 -28 49 -53
51 -56 2 -3 1 6 -2 20 -6 23 -6 24 7 7 13 -16 16 -15 31 18 11 23 24 35 37 35
17 0 18 3 9 21 -16 29 -3 77 26 96 19 12 22 19 13 29 -6 8 -16 14 -22 14 -5 0
-33 11 -61 24 -28 14 -72 31 -97 39 l-47 14 -5 -41 c-3 -23 -8 -50 -13 -60 -5
-14 -4 -17 4 -12 7 4 15 25 18 47 4 21 10 39 15 39 13 0 10 -30 -5 -65 l-13
-30 61 -11 c34 -7 63 -10 66 -7 8 7 -21 21 -61 27 -35 6 -37 8 -34 37 3 18 6
34 9 36 3 3 28 -3 56 -12 42 -14 51 -21 47 -36 -3 -10 -1 -19 4 -19 21 0 8
-41 -17 -52 -20 -9 -41 -8 -102 6 -189 44 -222 60 -222 103 0 49 16 63 75 63
29 0 66 -5 81 -11 28 -10 28 -10 10 10 -23 25 -10 46 34 55 18 3 30 12 30 21
0 12 -7 14 -27 9 l-28 -7 25 27 c14 16 18 25 9 21 -10 -4 -19 2 -26 18 -7 15
-39 37 -89 61 l-79 38 86 82 c48 46 92 92 98 104 34 64 -13 142 -88 142 -35 0
-50 -8 -116 -66z m135 42 c0 -16 -18 -32 -45 -39 -18 -4 -17 -5 3 -6 13 0 32
9 41 21 10 12 23 18 29 14 24 -15 10 -44 -44 -95 l-56 -53 -36 34 c-20 18 -39
34 -42 36 -3 2 4 10 15 18 11 8 29 23 40 32 58 50 95 65 95 38z m70 -66 c0
-24 -31 -68 -84 -119 -31 -30 -57 -53 -59 -50 -2 2 -14 21 -26 41 -12 21 -36
47 -52 59 -29 20 -38 39 -19 39 19 0 81 -63 76 -77 -3 -8 -2 -11 3 -8 6 3 14
-3 20 -12 10 -17 10 -17 11 0 0 10 26 45 58 77 58 59 72 68 72 50z m-352 -369
c10 -6 7 -10 -12 -13 -25 -5 -33 1 -19 15 8 9 15 9 31 -2z m-83 -121 c-3 -26
-1 -35 3 -22 6 21 8 20 18 -13 6 -19 8 -35 5 -36 -3 0 -19 -3 -36 -7 -16 -3
-52 -6 -80 -6 -43 -1 -51 2 -64 25 -13 23 -12 27 11 50 14 14 27 31 29 38 2 6
21 16 42 20 l37 9 0 -44 c0 -28 -5 -44 -12 -45 -38 -4 -55 -8 -78 -17 -20 -9
-12 -10 45 -9 l71 2 -4 65 c-2 48 0 61 7 50 6 -8 9 -35 6 -60z m-135 33 c0
-14 -19 -38 -25 -32 -8 8 5 39 16 39 5 0 9 -3 9 -7z m360 -95 c0 -6 10 -22 22
-35 12 -13 19 -23 17 -23 -3 0 -20 16 -39 35 -25 26 -30 35 -17 35 9 0 17 -5
17 -12z m-159 -52 c0 -21 0 -21 11 2 14 27 49 29 73 2 17 -18 16 -20 -6 -49
-13 -16 -27 -30 -30 -30 -13 -2 -90 90 -84 99 10 16 35 -1 36 -24z m554 14 c3
-5 -1 -10 -9 -10 -8 0 -18 5 -21 10 -3 6 1 10 9 10 8 0 18 -4 21 -10z m-30
-93 c-4 -15 -14 -32 -22 -38 -11 -10 -19 -7 -41 15 -15 15 -20 25 -12 22 8 -4
28 3 45 14 34 23 38 21 30 -13z m-450 -17 c3 -5 1 -10 -4 -10 -6 0 -11 5 -11
10 0 6 2 10 4 10 3 0 8 -4 11 -10z m365 -35 c13 -14 21 -27 18 -30 -2 -3 -17
9 -33 25 -16 17 -24 30 -19 30 6 0 21 -11 34 -25z"/>
<path d="M2055 1451 c-16 -10 -44 -34 -60 -52 l-30 -34 42 -41 c50 -49 56 -44
12 9 -17 20 -26 37 -21 37 10 0 45 -37 60 -65 6 -11 12 -15 12 -8 0 18 90 110
90 92 0 -8 -5 -20 -12 -27 -9 -9 -6 -16 11 -31 13 -11 32 -23 42 -26 11 -4 17
-10 14 -15 -3 -4 1 -7 8 -6 6 0 29 -6 49 -13 43 -17 67 -54 51 -79 -17 -27
-71 -18 -162 27 -45 22 -78 35 -75 29 3 -5 38 -25 77 -44 70 -34 71 -34 72
-75 1 -22 -3 -42 -7 -45 -14 -9 -9 -61 7 -74 22 -18 20 -22 -35 -64 l-49 -38
42 -40 c45 -43 50 -45 55 -28 2 6 0 9 -5 8 -4 -2 -9 2 -11 7 -6 19 -35 45 -43
39 -5 -3 -9 0 -9 5 0 21 23 10 56 -26 22 -24 34 -31 34 -21 0 17 41 48 62 48
7 0 -14 -26 -47 -58 -136 -130 -182 -154 -218 -114 -31 34 -21 72 31 127 26
27 40 44 32 37 -7 -6 -20 -12 -27 -12 -16 0 -83 59 -83 73 0 6 14 26 32 44 41
42 30 43 -18 1 -29 -26 -35 -28 -26 -11 7 12 21 28 33 36 20 15 20 16 -23 56
-24 22 -38 41 -31 41 13 0 173 -138 173 -150 0 -4 8 -11 17 -14 20 -8 25 -13
-80 92 -63 63 -88 82 -109 82 -34 0 -68 -32 -68 -62 1 -23 60 -98 132 -168
l36 -35 -24 -28 c-35 -41 -40 -74 -17 -105 15 -20 30 -28 59 -30 37 -3 46 3
124 73 139 125 129 109 93 147 -31 32 -31 34 -15 53 41 49 50 51 87 15 51 -50
44 -100 -15 -100 -21 -1 -23 -2 -9 -13 12 -10 13 -16 3 -35 -6 -13 -9 -33 -7
-43 8 -28 48 -52 76 -45 25 6 151 115 142 124 -2 3 -14 -3 -25 -13 -12 -11
-20 -14 -21 -7 -3 21 -4 27 -13 42 -7 11 -4 10 10 -2 16 -14 23 -15 32 -6 7 7
12 17 12 24 0 7 12 22 28 33 26 20 27 21 8 36 -31 23 -59 18 -108 -20 l-45
-35 39 -40 c21 -23 38 -44 38 -48 -1 -9 -79 -67 -101 -75 -24 -8 -59 20 -59
46 0 12 15 40 32 62 34 40 37 64 13 98 -25 35 -135 128 -154 130 -12 1 -17 6
-13 16 3 9 1 12 -5 8 -7 -5 -9 0 -6 14 5 16 11 19 30 14 17 -4 30 1 48 20 25
25 25 25 45 5 20 -20 20 -20 -2 -50 -12 -17 -26 -30 -30 -30 -21 0 50 -59 77
-65 24 -4 22 -2 -13 15 -35 16 -43 24 -40 42 2 16 12 25 33 29 24 5 26 7 13
13 -9 4 -14 14 -12 21 8 19 -12 53 -35 60 -11 3 -23 14 -26 24 -3 10 -42 36
-89 59 l-84 41 5 38 c9 70 -53 112 -112 74z m55 -11 c0 -6 -10 -15 -22 -20
-13 -5 -17 -9 -10 -9 7 -1 21 4 32 11 38 24 33 -3 -8 -44 l-41 -42 -26 24 -26
25 36 32 c37 33 65 42 65 23z m-112 -373 c32 -33 32 -34 13 -55 l-19 -22 -31
35 c-17 20 -31 38 -31 40 0 11 29 4 33 -7 2 -7 2 -1 0 15 -3 15 -3 27 -1 27 2
0 19 -15 36 -33z m323 -8 c16 -18 28 -32 27 -33 -2 0 -19 -14 -38 -31 -19 -16
-29 -23 -22 -15 16 19 16 35 -1 21 -18 -14 -62 31 -54 53 9 24 22 20 52 -15
18 -23 29 -29 37 -21 7 7 0 19 -23 41 -19 17 -28 31 -21 31 8 0 27 -14 43 -31z
m266 -75 c-3 -3 -12 -4 -19 -1 -8 3 -5 6 6 6 11 1 17 -2 13 -5z m-17 -24 c12
-7 11 -12 -5 -30 -16 -18 -20 -19 -33 -6 -13 12 -13 18 -2 30 14 18 20 19 40
6z m-291 -24 c23 -42 -13 -63 -51 -29 -17 15 -17 17 -2 35 23 24 38 23 53 -6z
m229 -17 c-2 -3 4 -14 12 -25 14 -19 14 -19 -8 0 -23 20 -30 40 -11 34 6 -2 9
-6 7 -9z m-297 -46 c13 -16 12 -17 -3 -4 -17 13 -22 21 -14 21 2 0 10 -8 17
-17z"/>
<path d="M2251 1044 c0 -11 3 -14 6 -6 3 7 2 16 -1 19 -3 4 -6 -2 -5 -13z"/>
<path d="M2820 1391 c0 -10 9 -13 30 -13 3 0 15 3 28 7 16 5 22 2 22 -9 0 -12
-10 -16 -35 -16 -19 0 -35 -5 -35 -11 0 -8 14 -10 41 -6 23 3 38 2 33 -3 -5
-5 -25 -10 -44 -13 l-35 -4 36 -1 c42 -2 62 16 57 50 -3 20 -10 23 -50 26 -29
2 -48 -1 -48 -7z"/>
<path d="M577 1363 c-106 -80 -156 -120 -188 -151 l-36 -34 4 74 c3 53 2 69
-6 58 -6 -8 -11 -41 -11 -72 0 -44 -6 -65 -25 -94 -14 -20 -25 -50 -25 -65 0
-35 54 -99 82 -99 19 0 19 -1 -3 -20 -13 -10 -20 -19 -15 -20 6 0 22 12 37 26
54 52 170 23 189 -46 14 -50 13 -64 -11 -104 -24 -40 -138 -126 -168 -126 -25
0 -77 44 -96 80 -8 15 -19 46 -24 69 -9 40 -8 42 26 68 28 22 33 31 28 52 -7
29 -30 58 -57 72 -14 8 -181 59 -191 59 -1 0 -3 -19 -4 -43 -1 -23 -10 -65
-21 -93 -14 -37 -15 -51 -6 -51 6 0 10 7 7 16 -4 14 -3 14 9 0 9 -11 20 -14
35 -8 23 8 67 -2 122 -31 27 -13 37 -26 46 -62 14 -58 48 -104 93 -128 20 -10
31 -19 24 -20 -48 -1 -111 66 -135 145 -12 39 -16 44 -16 22 -2 -63 57 -148
114 -167 33 -11 39 -9 122 43 94 58 133 105 133 162 0 36 -46 112 -72 121 -12
3 -18 15 -17 32 0 22 20 44 99 111 54 46 104 97 111 113 17 41 1 88 -40 115
-44 30 -70 29 -114 -4z m83 -3 c0 -5 -9 -10 -19 -10 -11 0 -23 5 -26 10 -4 6
5 10 19 10 14 0 26 -4 26 -10z m0 -23 c25 16 48 -3 56 -45 6 -32 2 -38 -87
-124 -102 -98 -134 -125 -192 -157 -48 -27 -59 -26 -96 5 -59 50 -35 116 75
208 l46 39 61 -64 c33 -35 55 -53 47 -39 -7 14 -24 37 -37 52 -14 14 -26 30
-26 35 -1 4 -7 8 -13 7 -6 -1 -11 5 -11 12 0 23 15 16 62 -27 40 -37 62 -71
35 -54 -6 4 -7 -1 -3 -11 4 -11 8 -13 11 -6 2 7 8 10 13 6 5 -3 9 3 9 13 0 10
24 39 52 65 64 57 52 64 -16 8 l-48 -40 -40 33 -40 32 37 32 c32 28 40 30 62
20 18 -8 29 -8 43 0z m-542 -314 c-7 -60 -26 -109 -38 -97 -5 5 -3 30 4 59 10
36 15 44 19 30 3 -12 5 -5 6 18 0 20 4 37 7 37 4 0 4 -21 2 -47z m97 4 c11 -6
22 -12 25 -12 3 0 20 -6 38 -14 39 -16 44 -54 10 -82 -26 -24 -32 -23 -101 0
-30 11 -59 16 -63 13 -4 -4 -4 8 0 27 3 18 6 47 6 63 0 28 2 29 33 23 17 -4
41 -12 52 -18z m295 -2 c0 -9 -9 -15 -22 -15 -22 1 -23 1 -4 15 25 19 26 19
26 0z"/>
<path d="M540 1215 c13 -14 26 -23 28 -20 7 7 -29 45 -41 45 -6 0 0 -11 13
-25z"/>
<path d="M230 989 c0 -21 25 -42 53 -46 21 -3 22 -2 2 8 -11 7 -28 21 -37 33
-14 17 -18 18 -18 5z"/>
<path d="M2732 1378 c-33 -33 -1 -71 55 -65 l38 4 -41 1 c-28 1 -44 7 -48 18
-8 21 -8 20 10 38 8 9 12 16 7 16 -5 0 -14 -5 -21 -12z"/>
<path d="M1465 1356 c-20 -20 -23 -31 -18 -63 8 -52 13 -54 13 -6 0 42 17 65
56 77 23 7 53 -14 55 -37 0 -7 2 -31 5 -54 4 -35 2 -44 -17 -53 -27 -15 -84
-5 -109 20 -54 54 -94 53 -164 -7 -49 -42 -56 -52 -51 -76 4 -25 55 -112 55
-94 0 4 18 -2 40 -13 28 -14 46 -18 57 -12 13 8 6 14 -36 34 -30 15 -54 21
-57 16 -4 -6 -10 -5 -15 3 -10 16 35 49 68 49 27 0 114 -41 108 -50 -3 -4 7
-5 20 -2 20 3 25 0 25 -15 0 -10 7 -28 15 -40 14 -20 13 -23 -6 -36 -17 -12
-19 -22 -15 -53 l6 -39 -14 35 c-8 19 -15 28 -15 20 -1 -33 38 -99 69 -115 30
-16 32 -15 93 22 34 20 67 43 73 51 8 12 12 12 22 0 9 -12 6 -20 -18 -43 -35
-34 -39 -72 -10 -106 10 -13 19 -19 20 -12 0 6 -4 15 -10 18 -5 3 -10 21 -10
39 0 24 10 41 40 71 l40 39 37 -35 38 -34 -34 38 -35 37 39 40 c22 22 44 39
50 36 6 -2 17 4 23 14 7 12 8 20 1 22 -10 3 8 69 22 78 5 3 -13 18 -39 33
l-47 27 32 -28 33 -28 -15 -45 c-21 -60 -127 -168 -148 -151 -16 14 -10 63 17
124 9 21 16 43 16 50 0 21 -19 -12 -31 -57 -10 -35 -12 -37 -22 -20 -5 11 -17
24 -25 29 -11 6 3 25 63 81 71 66 77 75 71 101 -9 36 -41 64 -74 64 -20 0 -67
-30 -126 -81 -5 -5 2 -17 17 -29 14 -12 36 -34 48 -51 20 -29 21 -31 3 -50
-14 -16 -26 -19 -51 -14 -26 5 -40 0 -68 -20 -36 -28 -49 -27 -58 5 -4 16 0
20 18 20 30 0 55 35 55 76 0 18 6 35 13 37 8 4 7 6 -3 6 -12 1 -14 13 -12 64
3 52 0 67 -18 90 -28 35 -72 36 -105 3z m305 -76 c0 -13 -11 -13 -30 0 -12 8
-11 10 8 10 12 0 22 -4 22 -10z m27 -24 c3 -3 -6 -15 -21 -27 -14 -11 -32 -27
-40 -34 -11 -12 -17 -10 -36 10 -22 23 -22 26 -7 43 12 13 29 18 57 16 23 -1
44 -4 47 -8z m-371 -22 c28 -30 28 -27 9 -64 -18 -34 -17 -34 -62 -18 -29 11
-36 9 -63 -10 -29 -22 -29 -22 -40 -3 -18 34 -11 55 27 88 49 41 95 44 129 7z
m384 -18 c0 -13 -79 -97 -90 -95 -15 3 -80 88 -70 94 15 9 73 -52 64 -67 -4
-7 14 8 41 35 53 52 55 53 55 33z m-319 -13 c-9 -4 -10 -7 -2 -13 7 -3 9 -14
5 -23 -3 -9 -10 -14 -15 -11 -12 7 -11 -13 1 -37 12 -22 10 -23 -24 -8 -21 10
-23 15 -14 35 6 13 15 24 20 24 5 0 6 5 3 10 -9 14 3 30 23 29 12 0 13 -2 3
-6z m87 -41 c0 -49 -14 -72 -42 -72 -30 0 -39 10 -23 28 10 13 9 14 -3 7 -13
-7 -13 -6 -2 7 7 8 10 23 6 31 -4 12 2 18 20 23 14 3 23 10 20 15 -3 5 1 6 9
3 10 -3 15 -19 15 -42z m-308 -51 c-1 -13 -29 45 -29 59 0 8 6 0 14 -19 8 -18
15 -36 15 -40z m407 -66 c7 -2 19 -18 28 -35 13 -26 14 -35 3 -57 -16 -33 -96
-91 -126 -92 -14 -1 -21 -5 -16 -12 10 -18 -28 6 -50 30 -11 12 -17 23 -14 26
3 3 13 -6 22 -20 9 -14 22 -25 28 -25 6 0 2 10 -10 23 -12 13 -27 38 -33 55
-11 32 -9 35 27 68 57 52 79 58 141 39z"/>
<path d="M1285 1169 c-10 -15 3 -25 16 -12 7 7 7 13 1 17 -6 3 -14 1 -17 -5z"/>
<path d="M1530 940 c0 -5 5 -10 10 -10 6 0 10 5 10 10 0 6 -4 10 -10 10 -5 0
-10 -4 -10 -10z"/>
<path d="M150 1352 c0 -10 74 -32 109 -32 24 0 76 19 69 25 -3 3 -18 0 -35 -5
-28 -10 -79 -4 -125 15 -10 4 -18 3 -18 -3z"/>
<path d="M1900 1319 c-19 -22 -39 -51 -44 -63 -14 -35 1 -74 34 -91 32 -17 56
-11 103 27 l27 22 56 -27 c30 -15 53 -31 50 -36 -3 -5 1 -11 9 -15 22 -8 18
-36 -7 -63 -12 -13 -16 -23 -10 -23 17 0 42 42 42 71 0 31 -26 55 -89 83 l-41
19 21 24 c13 12 20 26 16 29 -4 4 -9 0 -13 -9 -9 -24 -110 -97 -134 -97 -24 0
-60 33 -60 56 0 18 30 65 68 107 14 15 22 27 16 27 -5 0 -25 -18 -44 -41z"/>
<path d="M2649 1294 c-18 -22 -12 -86 9 -103 12 -10 14 -15 5 -18 -17 -6 -16
-18 3 -37 13 -13 13 -19 2 -34 -13 -18 -15 -18 -59 3 l-47 21 29 16 c37 21 48
62 24 88 -26 29 -57 24 -95 -15 -30 -31 -32 -37 -22 -60 7 -14 20 -28 29 -31
10 -3 39 -15 65 -26 73 -33 115 -107 53 -95 -22 4 -23 3 -9 -18 13 -20 13 -25
0 -38 -9 -8 -21 -17 -28 -20 -7 -2 -9 -8 -5 -13 4 -4 16 -3 26 3 15 10 22 8
36 -7 15 -17 15 -19 -7 -34 -12 -9 -34 -16 -48 -16 -22 -1 -23 -2 -7 -11 14
-8 24 -6 44 8 46 33 108 71 116 72 4 1 7 -10 7 -23 0 -13 6 -28 13 -33 16 -14
46 -12 44 1 -1 6 3 10 9 9 6 -1 29 17 50 40 l39 42 -42 -40 c-42 -39 -59 -40
-25 -2 16 19 16 20 -3 9 -11 -5 -29 -20 -39 -31 -25 -27 -36 -27 -36 2 0 30
98 126 123 122 10 -2 25 -12 33 -22 13 -16 13 -16 5 7 -4 14 -17 26 -30 28
-11 2 -21 8 -21 13 0 19 30 21 58 5 l27 -17 -24 20 c-13 12 -30 21 -38 21 -11
0 -13 6 -8 23 22 71 14 107 -26 107 -13 0 -19 -7 -19 -22 1 -23 1 -23 16 -3
13 17 16 18 24 5 13 -21 13 -24 -11 -95 -25 -71 -54 -98 -76 -69 -7 10 -11 27
-7 38 4 17 3 18 -5 6 -16 -22 -13 -37 8 -57 19 -18 19 -18 -5 -46 l-24 -28 7
31 c4 24 0 36 -16 54 l-22 24 50 42 c54 45 64 76 35 101 -13 10 -17 10 -24 0
-6 -11 -8 -11 -12 0 -3 9 -18 2 -50 -24 -54 -45 -67 -46 -66 -8 1 20 7 31 19
34 11 3 19 11 19 17 0 9 -4 10 -13 2 -7 -6 -23 -9 -36 -5 -18 5 -22 11 -19 42
3 31 7 36 28 36 20 0 26 -6 31 -30 5 -24 7 -27 14 -12 9 22 -19 67 -44 67 -10
0 -24 -7 -32 -16z m-45 -77 c23 -17 11 -45 -30 -72 -27 -17 -28 -17 -46 5 -24
29 -23 46 4 64 27 19 48 20 72 3z m204 -64 c-14 -17 -28 -16 -28 1 0 8 9 14
19 13 15 -1 17 -4 9 -14z m-9 -49 c-72 -75 -129 -92 -129 -39 0 21 43 75 61
75 4 0 17 -12 28 -26 12 -15 21 -22 21 -17 0 6 -7 16 -15 23 -8 7 -15 17 -15
23 0 6 10 2 22 -10 l21 -22 20 25 c10 14 22 22 25 19 3 -3 -14 -26 -39 -51z
m-35 -99 c16 -12 18 -19 8 -39 -13 -29 -67 -60 -85 -49 -7 4 -16 8 -21 8 -6 0
-10 13 -10 28 0 52 66 84 108 52z"/>
<path d="M2675 960 c-3 -5 -1 -10 4 -10 6 0 11 5 11 10 0 6 -2 10 -4 10 -3 0
-8 -4 -11 -10z"/>
<path d="M165 1273 c4 -28 1 -33 -16 -33 -11 0 -34 -13 -50 -29 -22 -23 -29
-38 -28 -68 0 -21 3 -32 6 -25 3 9 9 10 17 3 13 -11 74 -36 64 -26 -3 4 -21
15 -40 24 -18 10 -35 26 -37 36 -3 18 -2 18 14 2 15 -16 78 -47 94 -47 3 0
-18 14 -46 30 -29 17 -53 35 -53 40 0 13 62 51 75 47 5 -2 13 -17 17 -35 10
-38 42 -62 83 -61 16 0 23 3 15 6 -62 20 -78 42 -54 78 9 14 13 33 9 45 -9 27
-21 25 -29 -5 -9 -35 -21 -31 -34 13 -11 35 -11 35 -7 5z"/>
<path d="M2080 1281 c0 -10 55 -34 82 -36 26 -2 23 2 -22 25 -42 22 -60 25
-60 11z"/>
<path d="M1500 1240 c0 -5 5 -10 10 -10 6 0 10 5 10 10 0 6 -4 10 -10 10 -5 0
-10 -4 -10 -10z"/>
<path d="M2186 1233 c-6 -14 -5 -15 5 -6 7 7 10 15 7 18 -3 3 -9 -2 -12 -12z"/>
<path d="M1807 1146 c-10 -26 -8 -33 4 -16 8 12 9 9 5 -12 -8 -37 -1 -36 13 2
5 17 6 28 1 25 -4 -3 -10 0 -12 7 -3 7 -7 5 -11 -6z"/>
<path d="M2446 1153 c-11 -12 -6 -33 8 -33 22 0 27 -15 16 -44 -12 -32 -3 -35
11 -3 9 21 9 21 4 -4 -4 -22 0 -27 33 -37 31 -9 32 -10 7 -7 -16 2 -41 7 -54
11 -16 5 -22 4 -18 -3 9 -14 73 -26 96 -18 48 15 23 80 -34 91 -38 7 -52 19
-35 29 5 3 10 9 10 13 0 9 -36 13 -44 5z m85 -85 c0 -10 2 -10 6 0 5 14 23 16
23 3 0 -13 -27 -21 -45 -15 -8 4 -15 10 -15 15 0 14 30 11 31 -3z"/>
<path d="M2193 1118 c-11 -13 -23 -32 -27 -42 -7 -21 18 -66 37 -66 6 0 4 5
-5 11 -25 14 -22 36 10 65 17 17 21 24 10 20 -21 -6 -23 5 -6 22 7 7 10 12 7
12 -3 0 -15 -10 -26 -22z"/>
<path d="M205 1100 c3 -5 11 -10 16 -10 6 0 7 5 4 10 -3 6 -11 10 -16 10 -6 0
-7 -4 -4 -10z"/>
<path d="M1436 1053 c-6 -14 -5 -15 5 -6 7 7 10 15 7 18 -3 3 -9 -2 -12 -12z"/>
<path d="M1259 1033 c-13 -15 -12 -15 8 -5 18 10 33 6 102 -29 61 -31 79 -44
74 -56 -4 -11 -2 -14 5 -9 19 11 14 34 -8 41 -11 3 -20 11 -20 17 0 6 -3 9 -6
5 -4 -3 -33 7 -65 23 -68 35 -72 35 -90 13z"/>
<path d="M1954 951 c-5 -11 -29 -41 -53 -68 -96 -104 -102 -115 -23 -38 74 72
102 109 89 121 -2 2 -8 -5 -13 -15z"/>
<path d="M1290 951 c0 -10 19 -25 25 -20 1 2 -3 10 -11 17 -8 7 -14 8 -14 3z"/>
<path d="M716 903 c-6 -20 -10 -21 -29 -11 -19 10 -21 9 -9 -4 11 -14 9 -19
-10 -32 -12 -9 -32 -16 -43 -16 -19 -1 -19 -1 3 -19 28 -24 28 -25 -4 -66 -22
-30 -29 -33 -48 -24 -20 10 -20 9 -2 -5 10 -8 15 -20 11 -28 -8 -15 19 14 55
60 l25 33 60 -42 c82 -56 82 -57 59 -74 -10 -8 -14 -14 -9 -14 18 0 47 27 41
38 -4 5 -45 37 -93 70 l-86 60 36 14 c36 16 62 48 54 70 -2 7 -7 2 -11 -10z"/>
<path d="M2979 868 c-1 -29 -3 -80 -4 -113 -1 -33 -3 -210 -4 -392 l-1 -333
-1462 0 -1463 0 -2 100 c-1 80 2 100 13 100 8 0 14 -4 14 -8 0 -5 21 -30 47
-57 l47 -47 57 5 c66 6 90 19 113 61 29 55 27 73 -21 164 -51 98 -51 97 -59
90 -3 -3 13 -42 35 -87 51 -101 52 -132 7 -177 -27 -27 -42 -34 -75 -34 -58 0
-80 14 -137 89 l-51 68 47 12 c26 7 63 23 83 37 37 25 82 95 74 117 -2 7 -9
-5 -16 -25 -20 -62 -76 -101 -173 -122 l-28 -6 0 -150 0 -150 1485 0 1485 0 0
455 c0 250 -2 455 -5 455 -3 0 -6 -24 -6 -52z"/>
<path d="M1438 896 c-10 -7 -18 -19 -18 -26 0 -9 4 -9 13 -2 6 6 17 10 22 11
6 0 11 7 13 15 4 19 -7 20 -30 2z"/>
<path d="M2936 888 c4 -7 3 -8 -4 -4 -21 13 -33 -4 -16 -21 15 -15 15 -18 -2
-30 -25 -18 -39 -11 -37 18 2 21 2 22 -8 6 -13 -22 -5 -47 15 -47 23 0 76 50
76 71 0 11 -7 19 -16 19 -9 0 -12 -5 -8 -12z"/>
<path d="M15 766 c0 -66 1 -111 3 -98 4 26 2 26 52 6 29 -12 45 -27 61 -58 27
-54 82 -119 77 -91 -2 15 6 24 32 36 42 20 139 89 125 89 -6 0 -39 -18 -75
-40 -86 -53 -111 -53 -135 1 -10 22 -26 44 -35 49 -24 13 -15 60 11 60 12 0
16 5 13 14 -3 8 14 32 40 56 52 49 56 60 23 60 -13 0 -46 7 -73 15 -27 8 -65
16 -84 18 l-35 5 0 -122z m111 83 l81 -21 -53 -52 c-33 -32 -54 -61 -54 -74 0
-26 1 -26 -36 -9 -29 12 -29 13 -29 95 0 45 2 82 5 82 3 0 41 -9 86 -21z"/>
<path d="M1787 832 c-15 -16 -24 -32 -20 -37 5 -4 3 -5 -3 -2 -16 9 -39 -19
-24 -28 14 -8 62 34 56 49 -2 6 3 19 12 29 25 28 8 20 -21 -11z"/>
<path d="M1187 843 c-14 -13 -7 -21 17 -19 18 1 22 4 14 14 -12 13 -21 15 -31
5z"/>
<path d="M2656 824 c-19 -19 -19 -14 -1 -58 9 -20 20 -34 25 -31 6 4 7 11 4
17 -5 7 0 9 14 6 21 -6 23 4 6 46 -6 15 -4 17 7 11 12 -8 12 -6 0 8 -17 21
-35 22 -55 1z m34 -36 c0 -22 -7 -23 -26 -4 -19 20 -18 25 6 23 12 -1 20 -8
20 -19z"/>
<path d="M1498 795 c-20 -14 -44 -25 -53 -25 -9 0 -14 -4 -10 -10 8 -12 32 -3
79 32 49 35 35 38 -16 3z"/>
<path d="M315 800 c3 -5 8 -10 11 -10 2 0 4 5 4 10 0 6 -5 10 -11 10 -5 0 -7
-4 -4 -10z"/>
<path d="M2720 797 c0 -4 9 -25 20 -47 23 -46 25 -73 6 -89 -18 -15 -44 -4
-61 28 -8 14 -14 21 -15 14 0 -7 11 -24 24 -40 22 -25 26 -26 51 -15 25 11 27
17 23 50 -5 32 -48 122 -48 99z"/>
<path d="M193 756 c-47 -23 -11 -33 39 -11 19 8 15 26 -5 24 -7 -1 -22 -6 -34
-13z"/>
<path d="M1953 723 c-7 -3 -9 -11 -6 -20 4 -9 -1 -21 -12 -29 -10 -8 -13 -14
-7 -14 7 0 21 9 31 19 11 11 22 17 25 14 3 -4 6 3 6 14 0 19 -12 24 -37 16z"/>
<path d="M1902 708 c-15 -15 -16 -35 -2 -43 6 -4 7 1 3 11 -4 11 1 22 12 30
10 8 14 14 9 14 -6 0 -15 -5 -22 -12z"/>
<path d="M500 682 c0 -6 6 -12 14 -15 21 -8 166 -119 166 -127 0 -4 24 -7 54
-6 51 1 86 17 86 39 0 5 -8 2 -19 -7 -10 -9 -34 -19 -52 -22 -30 -5 -46 3
-129 63 -116 84 -120 87 -120 75z"/>
<path d="M828 635 c2 -19 6 -35 8 -35 2 0 4 16 4 35 0 19 -4 35 -8 35 -4 0 -6
-16 -4 -35z"/>
<path d="M1787 576 l-28 -22 22 -20 c11 -10 24 -19 28 -19 12 0 -1 -20 -27
-42 -54 -45 -94 -8 -52 49 21 29 21 29 0 16 -41 -26 -38 -82 6 -99 21 -7 36 4
91 66 43 50 45 53 33 74 -14 27 -38 26 -73 -3z m48 3 c4 -5 -3 -19 -16 -30
-26 -22 -26 -22 -35 -7 -4 6 -3 8 3 5 6 -4 14 4 17 18 7 26 20 32 31 14z m25
-22 c0 -2 -10 -12 -22 -23 l-23 -19 19 23 c18 21 26 27 26 19z"/>
<path d="M2605 580 c-3 -5 -1 -10 5 -10 6 0 9 -4 6 -8 -8 -13 32 -72 48 -72
20 0 38 26 32 47 -6 17 -57 53 -76 53 -5 0 -12 -4 -15 -10z m85 -55 c0 -43
-53 -16 -55 29 l-1 24 28 -20 c15 -10 28 -26 28 -33z"/>
<path d="M206 469 c-9 -44 -64 -93 -123 -108 -74 -19 -97 -33 -44 -26 54 7
135 49 156 82 23 35 35 72 26 77 -5 3 -11 -8 -15 -25z"/>
<path d="M888 483 c-20 -21 -7 -53 20 -53 19 0 72 42 72 57 0 18 -75 15 -92
-4z m51 -7 c10 -12 8 -17 -8 -25 -11 -6 -24 -11 -30 -11 -15 0 -14 37 2 43 20
9 24 8 36 -7z"/>
<path d="M2248 413 c-10 -20 17 -79 41 -88 19 -7 52 30 45 50 -3 7 -20 19 -37
26 -18 7 -35 14 -39 16 -3 2 -8 0 -10 -4z m72 -59 c0 -15 -18 -18 -36 -6 -6 4
-13 19 -16 34 l-5 27 28 -20 c16 -11 29 -27 29 -35z"/>
<path d="M120 294 c0 -27 21 -87 28 -79 12 12 7 56 -10 77 -17 23 -18 23 -18
2z"/>
</g>
</svg>
