<?xml version="1.0" standalone="no"?>
<!DOCTYPE svg PUBLIC "-//W3C//DTD SVG 20010904//EN"
 "http://www.w3.org/TR/2001/REC-SVG-20010904/DTD/svg10.dtd">
<svg version="1.0" xmlns="http://www.w3.org/2000/svg"
 width="300.000000pt" height="200.000000pt" viewBox="0 0 300.000000 200.000000"
 preserveAspectRatio="xMidYMid meet">
<metadata>
Created by potrace 1.10, written by Peter Selinger 2001-2011
</metadata>
<g transform="translate(0.000000,200.000000) scale(0.100000,-0.100000)"
fill="#8fbc8f" stroke="none">
<path d="M330 1993 c8 -3 30 -19 48 -36 20 -20 32 -26 32 -16 0 29 -41 60 -77
58 -14 0 -15 -2 -3 -6z"/>
<path d="M2208 1993 c23 -2 59 -2 80 0 20 2 1 4 -43 4 -44 0 -61 -2 -37 -4z"/>
<path d="M1512 1970 c-23 -14 -32 -26 -28 -36 3 -9 6 -22 6 -30 0 -8 7 -14 16
-14 10 0 12 5 7 13 -14 23 -11 38 10 47 12 5 18 9 13 9 -5 1 -3 8 4 16 16 20
12 19 -28 -5z"/>
<path d="M256 1957 c3 -10 9 -15 12 -12 3 3 0 11 -7 18 -10 9 -11 8 -5 -6z"/>
<path d="M1550 1956 c0 -2 7 -9 15 -16 9 -7 15 -8 15 -2 0 5 -7 12 -15 16 -8
3 -15 4 -15 2z"/>
<path d="M1606 1945 c-5 -13 -2 -14 17 -4 32 17 33 19 10 19 -12 0 -23 -7 -27
-15z"/>
<path d="M260 1919 c0 -8 4 -19 9 -24 5 -6 11 -19 13 -30 2 -11 6 -15 10 -10
3 6 -3 26 -13 45 -11 19 -19 28 -19 19z"/>
<path d="M1453 1883 c-3 -10 -8 -21 -10 -25 -7 -13 5 -9 21 8 9 8 16 20 16 25
0 16 -20 10 -27 -8z"/>
<path d="M388 1861 c-3 -18 -1 -34 3 -37 4 -2 7 -24 6 -48 -2 -35 -5 -42 -15
-34 -7 6 -11 17 -8 25 3 7 -1 13 -9 13 -26 0 -16 -22 36 -77 27 -29 48 -57 44
-62 -6 -11 33 -41 55 -41 8 0 4 6 -10 13 -14 7 -25 19 -25 27 0 8 -6 26 -14
40 -18 32 -41 117 -41 155 0 46 -16 64 -22 26z"/>
<path d="M2994 1770 c0 -52 1 -74 3 -47 2 26 2 68 0 95 -2 26 -3 4 -3 -48z"/>
<path d="M517 1795 c30 -43 60 -68 73 -60 15 10 30 -5 212 -208 88 -97 164
-174 169 -171 5 3 8 1 7 -5 -3 -11 113 -103 121 -95 2 2 -4 11 -15 18 -18 14
-18 15 10 45 37 38 23 41 -16 4 -23 -22 -31 -24 -41 -14 -10 10 -7 16 12 32
13 10 20 19 15 19 -4 0 -15 -7 -25 -16 -17 -15 -19 -15 -34 0 -9 9 -13 16 -8
16 4 1 -3 9 -16 20 -12 11 -27 18 -31 15 -4 -3 -69 64 -144 147 -74 84 -165
179 -201 211 -67 60 -86 66 -38 13 15 -17 6 -11 -21 14 -40 36 -45 39 -29 15z"/>
<path d="M500 1774 c0 -6 8 -19 18 -30 9 -10 25 -31 34 -45 35 -55 117 -140
176 -183 34 -26 66 -46 70 -46 4 0 23 -14 41 -31 28 -25 31 -33 20 -40 -11 -8
-11 -9 2 -7 9 2 30 -12 47 -29 16 -18 25 -33 19 -33 -7 0 -4 -5 5 -10 11 -7
15 -19 12 -36 -3 -14 -1 -23 4 -20 11 7 13 56 2 56 -4 0 -7 6 -6 13 0 8 -42
60 -94 118 -52 57 -122 133 -154 169 -33 36 -68 73 -78 84 -22 21 -38 14 -17
-7 8 -8 29 -32 48 -53 19 -21 59 -65 90 -98 31 -32 51 -57 44 -55 -25 8 -156
134 -210 202 -72 92 -73 93 -73 81z"/>
<path d="M123 1753 c9 -2 23 -2 30 0 6 3 -1 5 -18 5 -16 0 -22 -2 -12 -5z"/>
<path d="M2125 1750 c-3 -5 1 -10 9 -10 9 0 16 5 16 10 0 6 -4 10 -9 10 -6 0
-13 -4 -16 -10z"/>
<path d="M1445 1740 c-3 -5 1 -10 9 -10 9 0 16 5 16 10 0 6 -4 10 -9 10 -6 0
-13 -4 -16 -10z"/>
<path d="M220 1730 c-11 -7 -6 -10 20 -10 19 0 44 -7 54 -15 11 -8 27 -15 35
-15 9 0 0 8 -19 19 -51 26 -73 32 -90 21z"/>
<path d="M695 1729 c-4 -6 -5 -12 -2 -15 2 -3 7 2 10 11 7 17 1 20 -8 4z"/>
<path d="M2014 1725 c-4 -8 -9 -13 -13 -11 -4 3 -12 -4 -19 -15 -10 -15 -10
-19 0 -17 13 3 58 45 58 54 0 11 -21 2 -26 -11z"/>
<path d="M2126 1685 c-3 -9 0 -15 9 -15 9 0 12 6 9 15 -4 8 -7 15 -9 15 -2 0
-5 -7 -9 -15z"/>
<path d="M2846 1653 c-6 -14 -5 -15 5 -6 7 7 10 15 7 18 -3 3 -9 -2 -12 -12z"/>
<path d="M356 1651 c-3 -5 10 -11 29 -13 36 -4 47 5 19 16 -22 9 -42 7 -48 -3z"/>
<path d="M310 1635 c0 -9 6 -12 15 -9 8 4 15 7 15 9 0 2 -7 5 -15 9 -9 3 -15
0 -15 -9z"/>
<path d="M1412 1620 c0 -14 2 -19 5 -12 2 6 2 18 0 25 -3 6 -5 1 -5 -13z"/>
<path d="M2250 1632 c0 -16 40 -31 101 -38 35 -4 88 -15 118 -25 30 -11 69
-19 87 -19 18 0 53 -9 79 -20 49 -21 93 -28 65 -10 -8 5 -12 11 -9 15 3 3 30
-7 60 -23 47 -24 58 -36 88 -95 32 -62 34 -74 32 -154 -1 -94 -17 -133 -51
-133 -25 0 -25 11 0 52 22 36 25 48 11 48 -5 0 -11 -13 -14 -30 -4 -16 -13
-30 -20 -30 -11 0 -8 15 11 64 17 43 29 63 39 59 8 -3 13 2 13 12 0 12 -5 15
-16 11 -9 -3 -17 -6 -20 -6 -5 0 -39 -77 -49 -110 -4 -14 -14 -33 -23 -43 -14
-16 -14 -19 2 -35 15 -15 18 -15 27 -2 8 11 12 12 16 3 2 -7 13 -13 23 -13 10
0 21 -4 24 -9 3 -5 15 -7 27 -4 20 6 21 11 17 132 -3 115 -6 132 -33 193 -28
63 -34 69 -97 102 -67 36 -95 45 -83 26 3 -5 -1 -10 -9 -10 -19 0 -30 17 -14
22 8 3 6 7 -5 11 -9 3 -17 3 -17 -1 0 -13 -105 -5 -143 11 -21 9 -71 21 -111
26 -40 5 -82 14 -94 20 -24 13 -32 14 -32 3z m612 -514 c-7 -7 -12 -8 -12 -2
0 14 12 26 19 19 2 -3 -1 -11 -7 -17z"/>
<path d="M415 1600 c28 -12 37 -12 30 0 -3 6 -16 10 -28 9 -21 0 -21 -1 -2 -9z"/>
<path d="M2827 1599 c7 -7 15 -10 18 -7 3 3 -2 9 -12 12 -14 6 -15 5 -6 -5z"/>
<path d="M590 1579 c6 -11 16 -19 21 -17 17 6 12 22 -10 30 -19 7 -20 5 -11
-13z"/>
<path d="M842 1591 c-11 -7 -11 -9 0 -14 9 -3 15 1 15 9 0 8 -1 14 -1 14 -1 0
-7 -4 -14 -9z"/>
<path d="M437 1563 c-4 -3 -7 -11 -7 -17 0 -6 5 -5 12 2 6 6 9 14 7 17 -3 3
-9 2 -12 -2z"/>
<path d="M1447 1564 c-4 -4 -4 -10 -2 -14 6 -10 45 0 45 11 0 10 -33 12 -43 3z"/>
<path d="M354 1527 c-76 -33 -146 -98 -194 -178 -39 -66 -42 -77 -45 -155 -3
-69 0 -91 15 -117 10 -18 21 -46 25 -64 l6 -32 -53 18 c-76 26 -108 33 -108
23 0 -8 133 -52 157 -52 6 0 19 -23 29 -52 35 -94 110 -124 347 -138 88 -6
181 -8 206 -5 25 2 84 7 131 10 115 8 119 8 134 31 24 34 92 75 131 79 22 2
47 12 59 25 l21 21 -30 -7 c-16 -4 -33 -12 -36 -17 -4 -6 -24 -7 -45 -4 -25 4
-34 3 -25 -3 24 -15 -37 -25 -73 -12 -17 6 -78 21 -136 32 -98 20 -116 28
-272 116 -150 86 -218 115 -218 94 0 -4 11 -11 25 -14 14 -4 25 -11 25 -16 0
-6 7 -10 15 -10 17 0 126 -53 165 -80 14 -10 53 -32 87 -49 34 -18 67 -39 74
-47 8 -10 22 -12 45 -8 19 3 34 2 34 -2 0 -5 17 -9 38 -10 20 0 63 -8 94 -18
l57 -19 -23 -18 c-33 -26 -108 -40 -218 -42 -82 -2 -101 1 -161 27 -38 15 -95
43 -127 61 -32 18 -75 38 -97 45 -21 7 -41 18 -45 24 -6 8 -8 8 -8 0 0 -16 20
-30 53 -38 15 -4 25 -11 22 -16 -3 -5 0 -12 6 -16 8 -4 9 -3 5 4 -4 7 -5 12
-2 12 11 0 121 -64 128 -74 5 -7 8 -7 8 2 0 7 5 10 10 7 6 -4 7 -11 4 -17 -5
-7 -2 -8 6 -3 7 4 15 3 19 -3 4 -6 22 -14 41 -17 71 -12 41 -17 -75 -11 -261
14 -313 28 -339 90 -8 20 -20 36 -27 36 -8 0 -6 -7 5 -19 10 -11 13 -22 8 -25
-11 -7 -24 23 -48 109 -9 33 -25 76 -34 96 -21 40 -19 141 4 194 56 132 98
181 194 227 34 16 62 34 62 39 0 11 4 12 -56 -14z"/>
<path d="M2955 1540 c3 -5 11 -10 16 -10 6 0 7 5 4 10 -3 6 -11 10 -16 10 -6
0 -7 -4 -4 -10z"/>
<path d="M505 1520 c3 -5 8 -10 11 -10 2 0 4 5 4 10 0 6 -5 10 -11 10 -5 0 -7
-4 -4 -10z"/>
<path d="M2183 1525 c3 -5 -16 -24 -41 -41 -26 -17 -73 -48 -105 -69 -44 -30
-60 -36 -69 -27 -7 7 -16 12 -22 12 -5 0 -1 -7 10 -15 18 -15 16 -19 -60 -90
-44 -41 -85 -75 -92 -75 -6 0 -14 -6 -17 -14 -9 -23 -52 -47 -71 -40 -9 3 -13
10 -10 15 10 16 -5 9 -30 -15 -15 -13 -26 -30 -26 -37 0 -10 2 -11 8 -2 12 19
58 33 70 21 11 -11 134 86 232 184 30 31 94 79 142 108 96 57 106 66 88 83 -7
7 -10 8 -7 2z"/>
<path d="M114 1505 c11 -8 22 -12 25 -9 6 6 -19 24 -34 24 -5 -1 -1 -7 9 -15z"/>
<path d="M2530 1510 c8 -5 20 -10 25 -10 6 0 3 5 -5 10 -8 5 -19 10 -25 10 -5
0 -3 -5 5 -10z"/>
<path d="M590 1503 c0 -4 5 -15 10 -23 8 -13 10 -13 10 2 0 9 -4 20 -10 23 -5
3 -10 3 -10 -2z"/>
<path d="M650 1500 c0 -5 5 -10 11 -10 5 0 7 5 4 10 -3 6 -8 10 -11 10 -2 0
-4 -4 -4 -10z"/>
<path d="M865 1499 c4 -6 10 -8 13 -5 3 3 12 0 21 -7 14 -11 14 -10 2 6 -14
18 -47 24 -36 6z"/>
<path d="M2714 1498 c-3 -5 8 -26 25 -46 17 -20 40 -54 51 -74 22 -40 60 -53
60 -20 0 13 -2 14 -9 3 -7 -11 -10 -11 -17 0 -4 7 -3 14 4 17 6 2 8 10 5 18
-5 13 -7 13 -15 2 -7 -9 -11 -10 -14 -1 -3 6 -18 30 -35 52 -16 23 -24 41 -17
41 15 0 1 13 -17 16 -8 1 -18 -2 -21 -8z"/>
<path d="M2856 1497 c3 -10 9 -15 12 -12 3 3 0 11 -7 18 -10 9 -11 8 -5 -6z"/>
<path d="M941 1474 c6 -8 19 -14 28 -14 9 0 22 -5 29 -12 7 -7 67 -30 134 -53
67 -22 124 -46 126 -54 3 -9 0 -11 -8 -6 -9 5 -11 4 -6 -4 4 -6 12 -9 17 -6
12 8 12 -66 -1 -85 -8 -13 -12 -12 -28 5 -10 11 -16 27 -14 35 5 13 3 13 -12
1 -12 -10 -14 -16 -5 -21 6 -5 8 -13 4 -20 -5 -8 -4 -11 3 -7 5 4 21 -6 34
-21 l24 -29 12 51 c7 29 12 61 12 73 0 29 -39 71 -70 77 -71 14 -150 40 -195
65 -62 34 -102 46 -84 25z"/>
<path d="M1446 1474 c-10 -27 -7 -36 9 -20 8 8 15 19 15 25 0 17 -17 13 -24
-5z"/>
<path d="M2260 1486 c0 -2 7 -9 15 -16 13 -11 14 -10 9 4 -5 14 -24 23 -24 12z"/>
<path d="M2776 1465 c4 -8 11 -15 16 -15 6 0 5 6 -2 15 -7 8 -14 15 -16 15 -2
0 -1 -7 2 -15z"/>
<path d="M165 1460 c3 -5 8 -10 11 -10 2 0 4 5 4 10 0 6 -5 10 -11 10 -5 0 -7
-4 -4 -10z"/>
<path d="M540 1441 c0 -6 4 -13 10 -16 6 -3 7 1 4 9 -7 18 -14 21 -14 7z"/>
<path d="M2300 1391 c-58 -32 -125 -76 -150 -98 -56 -50 -214 -153 -235 -153
-8 0 -15 -4 -15 -8 0 -5 -12 -14 -27 -21 -25 -11 -29 -10 -42 8 -7 12 -18 21
-23 21 -5 0 0 -12 11 -26 l20 -26 -27 -37 c-15 -20 -19 -30 -9 -22 19 15 33 9
22 -8 -3 -6 -26 -10 -50 -9 -24 0 -42 4 -40 8 3 4 -3 14 -13 21 -14 11 -15 11
-5 0 9 -11 7 -17 -9 -31 -21 -16 -21 -17 13 -18 19 -1 57 1 85 4 l52 5 -5 40
c-5 35 -3 40 23 51 62 28 183 105 274 176 52 41 124 89 160 107 65 33 124 74
105 74 -5 0 -57 -26 -115 -58z"/>
<path d="M245 1403 l-17 -28 23 22 c12 12 20 25 17 28 -3 3 -13 -7 -23 -22z"/>
<path d="M2700 1420 c0 -5 5 -10 11 -10 5 0 7 5 4 10 -3 6 -8 10 -11 10 -2 0
-4 -4 -4 -10z"/>
<path d="M1478 1414 c-4 -3 -14 -7 -25 -8 -18 -3 -31 -50 -32 -116 l0 -25 14
25 c8 14 14 38 15 54 0 19 10 37 28 52 15 13 22 24 16 24 -6 0 -13 -3 -16 -6z"/>
<path d="M470 1395 c0 -23 252 -191 393 -262 31 -16 54 -33 50 -38 -5 -4 -3
-5 4 -1 7 4 54 -20 109 -55 53 -33 102 -62 108 -63 6 -1 16 -5 23 -9 6 -4 14
-3 17 1 3 5 -14 18 -37 28 -23 10 -75 40 -114 66 -40 27 -105 63 -145 82 -77
35 -206 115 -325 203 -71 52 -83 59 -83 48z"/>
<path d="M665 1391 c-3 -5 -2 -12 3 -15 5 -3 9 1 9 9 0 17 -3 19 -12 6z"/>
<path d="M1671 1373 c-29 -28 -50 -73 -33 -73 4 0 15 15 23 33 9 21 25 35 46
42 43 14 52 25 20 25 -15 0 -39 -12 -56 -27z"/>
<path d="M1880 1390 c0 -5 5 -10 10 -10 6 0 10 5 10 10 0 6 -4 10 -10 10 -5 0
-10 -4 -10 -10z"/>
<path d="M264 1376 c-10 -8 -16 -17 -13 -20 3 -3 14 3 24 14 21 23 17 26 -11
6z"/>
<path d="M693 1375 c0 -8 4 -12 9 -9 4 3 8 9 8 15 0 5 -4 9 -8 9 -5 0 -9 -7
-9 -15z"/>
<path d="M815 1380 c-3 -6 1 -7 9 -4 18 7 21 14 7 14 -6 0 -13 -4 -16 -10z"/>
<path d="M2105 1380 c3 -5 8 -10 11 -10 2 0 4 5 4 10 0 6 -5 10 -11 10 -5 0
-7 -4 -4 -10z"/>
<path d="M1800 1355 c-7 -13 -18 -22 -23 -18 -6 3 -7 1 -3 -5 4 -6 -7 -27 -25
-46 -31 -34 -32 -35 -58 -19 l-26 16 27 -28 28 -29 30 34 c56 65 92 120 77
120 -7 0 -20 -11 -27 -25z"/>
<path d="M1920 1364 c0 -8 5 -12 10 -9 6 3 10 10 10 16 0 5 -4 9 -10 9 -5 0
-10 -7 -10 -16z"/>
<path d="M340 1359 c0 -5 5 -7 10 -4 6 3 10 8 10 11 0 2 -4 4 -10 4 -5 0 -10
-5 -10 -11z"/>
<path d="M351 1334 c-7 -8 -10 -18 -6 -22 3 -3 10 0 14 7 7 10 12 8 24 -10 9
-12 19 -21 21 -18 3 3 -5 17 -17 31 -19 24 -24 25 -36 12z"/>
<path d="M807 1333 c-20 -23 -31 -69 -19 -77 6 -3 18 8 26 25 20 40 20 45 1
29 -20 -17 -19 -1 2 22 9 10 14 18 11 18 -3 0 -12 -8 -21 -17z m-10 -65 c-3
-8 -6 -5 -6 6 -1 11 2 17 5 13 3 -3 4 -12 1 -19z"/>
<path d="M860 1330 c0 -8 -7 -24 -15 -34 -8 -11 -15 -27 -15 -35 0 -9 8 0 18
19 12 24 23 34 37 33 11 -1 14 0 7 3 -9 4 -10 10 -3 18 7 8 4 12 -10 12 -10 0
-19 -7 -19 -16z"/>
<path d="M2395 1339 c-4 -6 -5 -12 -2 -15 2 -3 7 2 10 11 7 17 1 20 -8 4z"/>
<path d="M2126 1319 c-13 -12 -27 -17 -39 -13 -17 5 -18 4 -6 -9 16 -17 54 -5
64 21 8 22 3 22 -19 1z"/>
<path d="M2346 1303 c5 -25 3 -33 -9 -33 -8 0 -20 -7 -27 -15 -7 -9 -19 -14
-26 -11 -7 3 -18 -2 -24 -10 -20 -23 36 -18 60 6 11 11 20 17 20 14 0 -3 7 1
15 10 19 18 19 27 0 52 -14 18 -14 17 -9 -13z"/>
<path d="M227 1305 c-4 -8 -3 -16 1 -19 4 -3 9 4 9 15 2 23 -3 25 -10 4z"/>
<path d="M2254 1296 c1 -25 10 -34 20 -18 2 4 -2 15 -9 25 -12 17 -13 16 -11
-7z"/>
<path d="M2530 1309 c-57 -12 -124 -45 -161 -77 -46 -40 -60 -46 -167 -72 -51
-12 -91 -25 -88 -27 2 -3 42 5 87 16 46 12 91 21 100 21 10 0 39 16 65 36 51
39 143 84 172 84 22 0 47 16 36 22 -5 3 -25 1 -44 -3z"/>
<path d="M2300 1299 c0 -5 5 -7 10 -4 6 3 10 8 10 11 0 2 -4 4 -10 4 -5 0 -10
-5 -10 -11z"/>
<path d="M874 1282 c-6 -4 -14 -18 -18 -32 -6 -24 -6 -24 9 3 9 15 20 25 25
22 6 -4 10 -1 10 4 0 13 -10 14 -26 3z"/>
<path d="M912 1283 c2 -5 -13 -30 -31 -57 -30 -44 -31 -47 -9 -31 21 17 36 39
55 83 3 6 0 12 -6 12 -6 0 -10 -3 -9 -7z"/>
<path d="M1710 1280 c0 -5 5 -10 10 -10 6 0 10 5 10 10 0 6 -4 10 -10 10 -5 0
-10 -4 -10 -10z"/>
<path d="M1020 1270 c0 -5 5 -10 11 -10 5 0 7 5 4 10 -3 6 -8 10 -11 10 -2 0
-4 -4 -4 -10z"/>
<path d="M2836 1272 c-2 -4 -1 -14 5 -22 7 -12 9 -10 9 8 0 23 -5 28 -14 14z"/>
<path d="M1453 1242 c-29 -16 -48 -44 -36 -56 3 -3 19 8 37 24 17 17 34 30 39
30 4 0 7 5 7 10 0 13 -9 12 -47 -8z"/>
<path d="M1510 1251 c0 -10 26 -9 36 2 4 4 -2 7 -14 7 -12 0 -22 -4 -22 -9z"/>
<path d="M2540 1245 c0 -8 4 -15 10 -15 5 0 7 7 4 15 -4 8 -8 15 -10 15 -2 0
-4 -7 -4 -15z"/>
<path d="M385 1240 c-3 -5 -1 -10 4 -10 6 0 11 5 11 10 0 6 -2 10 -4 10 -3 0
-8 -4 -11 -10z"/>
<path d="M810 1230 c0 -5 5 -10 10 -10 6 0 10 5 10 10 0 6 -4 10 -10 10 -5 0
-10 -4 -10 -10z"/>
<path d="M916 1231 c-4 -7 -5 -15 -2 -18 9 -9 19 4 14 18 -4 11 -6 11 -12 0z"/>
<path d="M2490 1229 c0 -4 -18 -13 -41 -19 -23 -6 -39 -13 -37 -16 3 -2 31 4
64 14 47 15 55 19 37 24 -13 3 -23 2 -23 -3z"/>
<path d="M2600 1220 c0 -5 5 -10 11 -10 5 0 7 5 4 10 -3 6 -8 10 -11 10 -2 0
-4 -4 -4 -10z"/>
<path d="M635 1190 c-3 -5 -3 -15 0 -20 4 -6 1 -19 -7 -28 -11 -15 -11 -15 3
-5 9 7 19 10 23 6 4 -4 4 1 0 11 -6 15 -3 17 14 11 26 -8 29 3 5 21 -22 16
-30 17 -38 4z"/>
<path d="M1107 1185 c3 -8 9 -12 14 -9 12 7 11 11 -5 17 -10 4 -13 1 -9 -8z"/>
<path d="M2545 1183 c-72 -18 -386 -93 -391 -93 -2 0 -4 5 -4 10 0 6 7 10 16
10 25 0 156 42 149 48 -7 7 -157 -39 -170 -52 -5 -6 -41 -11 -80 -11 -78 -1
-112 -14 -176 -72 -45 -40 -49 -53 -16 -53 12 0 29 -5 37 -10 13 -8 13 -10 -1
-10 -9 0 -30 5 -46 11 -27 9 -36 6 -77 -21 -25 -17 -46 -36 -46 -42 0 -6 7 -5
18 3 15 13 16 12 3 -3 -7 -10 -17 -15 -22 -12 -5 3 -17 -12 -25 -33 -23 -54
-15 -183 15 -241 12 -23 19 -47 15 -53 -3 -5 -8 -29 -11 -52 -5 -50 -11 -57
-49 -62 -16 -2 -30 -4 -31 -6 -6 -3 -24 -7 -49 -8 -14 0 -22 -5 -19 -11 4 -6
10 -8 15 -5 5 3 25 -9 45 -27 33 -28 35 -33 19 -39 -11 -4 -31 -8 -46 -8 -16
-1 -28 -6 -28 -12 0 -8 11 -9 33 -5 17 4 59 9 92 12 33 3 66 7 73 10 18 5 54
-15 47 -27 -4 -5 -29 -9 -57 -9 -59 0 -168 -20 -168 -31 0 -12 42 -39 60 -39
9 0 16 9 17 22 3 31 20 38 96 38 74 0 79 5 46 51 -18 25 -49 43 -35 20 3 -5
-16 -11 -41 -14 -42 -4 -51 -2 -79 23 -24 20 -29 31 -21 39 17 17 58 13 95 -9
17 -11 32 -15 32 -10 0 5 11 12 25 16 20 5 24 11 19 29 -3 12 0 28 8 36 13 14
19 38 19 72 0 16 2 16 26 -3 14 -11 35 -20 46 -20 22 0 16 13 -9 16 -24 4 -90
66 -109 104 -22 43 -32 150 -16 176 8 15 9 9 5 -27 -7 -55 16 -146 47 -180 23
-27 22 -23 -11 46 -31 66 -35 177 -7 217 14 22 15 27 3 22 -26 -10 -57 -88
-57 -147 -1 -60 29 -142 60 -163 18 -13 18 -16 -5 -86 -29 -86 -43 -104 -72
-89 -17 9 -18 15 -9 50 6 22 14 38 17 36 3 -2 7 5 7 16 1 11 -2 17 -8 14 -20
-13 -8 19 16 41 24 22 34 41 16 30 -5 -3 -17 13 -26 37 -22 53 -22 149 0 200
9 22 12 36 6 33 -5 -4 -17 -26 -26 -51 -22 -56 -17 -136 12 -193 11 -23 17
-42 13 -42 -4 0 -17 23 -29 50 -36 84 -25 199 22 239 10 7 17 10 17 7 0 -4 10
2 22 14 12 11 32 20 44 20 l21 0 -23 -47 c-13 -26 -24 -64 -24 -86 0 -58 30
-145 62 -179 32 -34 35 -43 12 -34 -9 3 -12 2 -9 -5 4 -6 13 -8 21 -5 8 3 25
0 39 -6 32 -14 52 2 51 39 -1 16 7 43 16 61 14 26 15 32 4 32 -8 0 -23 3 -33
6 -17 5 -17 5 -1 -8 19 -16 14 -59 -6 -57 -6 1 -22 1 -35 0 -32 -1 -18 -15 17
-16 21 0 27 -5 28 -22 2 -36 -29 -28 -70 18 -42 46 -54 73 -66 146 -15 88 26
182 62 144 11 -12 10 -13 -5 -8 -11 4 -16 3 -12 -4 4 -5 15 -7 25 -4 17 5 41
-16 78 -71 11 -17 11 -16 1 4 -6 13 -8 26 -5 29 9 10 48 -86 44 -110 -1 -12 1
-27 4 -33 7 -10 -15 -99 -32 -134 -15 -31 -74 -62 -107 -57 -21 4 -33 1 -37
-8 -8 -22 9 -27 77 -24 46 1 73 -3 107 -19 53 -26 88 -27 117 -7 12 9 24 11
27 6 4 -5 83 16 179 48 94 32 177 59 182 61 6 1 16 5 23 7 6 3 20 2 30 -3 21
-9 28 -11 45 -13 24 -2 88 -63 83 -78 -3 -8 -2 -11 3 -8 6 3 14 -3 20 -12 8
-15 10 -15 11 -3 0 24 -93 110 -135 125 l-39 13 71 36 c110 55 162 139 163
258 0 89 -28 163 -83 217 -73 74 -127 93 -202 74z m117 -31 c15 -10 52 -47 82
-81 43 -49 58 -76 67 -117 11 -50 11 -56 -7 -68 -10 -8 -36 -17 -56 -20 -21
-4 -38 -11 -38 -16 0 -14 15 -13 55 4 34 15 35 14 35 -8 0 -12 -3 -26 -7 -30
-5 -4 -8 -11 -9 -14 -3 -27 -18 -62 -26 -62 -5 0 -7 -4 -3 -9 3 -6 -3 -14 -12
-20 -10 -6 -14 -11 -10 -11 16 0 -48 -46 -83 -60 -19 -7 -41 -18 -49 -24 -17
-13 -81 -36 -102 -36 -8 0 -33 -8 -55 -19 -21 -10 -64 -27 -94 -36 -30 -10
-72 -27 -93 -37 -20 -11 -43 -17 -50 -14 -7 3 -2 8 11 12 17 5 20 9 11 15 -7
4 -23 0 -36 -8 -12 -8 -30 -13 -38 -9 -10 4 -14 2 -9 -5 5 -8 -8 -9 -42 -5
-27 4 -56 7 -65 7 -11 0 -1 16 30 47 122 123 86 337 -71 426 -76 43 -70 47 11
6 33 -16 71 -44 85 -62 14 -18 26 -28 26 -22 0 7 -14 27 -32 45 -18 19 -32 38
-33 42 0 18 -41 37 -79 37 -65 0 -74 -14 -24 -36 25 -11 44 -26 44 -36 1 -10
-2 -18 -7 -18 -5 0 6 -23 26 -51 44 -64 58 -116 53 -199 -2 -48 -9 -74 -27
-98 -13 -18 -21 -35 -19 -38 3 -2 17 14 32 37 53 80 45 198 -20 297 -19 28
-29 52 -24 52 6 0 8 5 5 10 -15 24 16 7 41 -22 63 -76 85 -199 50 -282 -23
-54 -67 -108 -83 -101 -8 3 -24 -2 -36 -10 -39 -27 -36 -16 8 28 49 48 71 119
61 190 -9 56 -55 155 -65 139 -5 -8 -17 -1 -41 23 -36 38 -97 60 -132 49 -15
-4 -18 -3 -13 6 8 13 72 9 109 -6 14 -5 17 -4 12 4 -11 17 9 15 24 -3 11 -13
10 -14 -6 -8 -17 6 -17 5 -6 -10 14 -17 45 -12 39 7 -1 6 -26 23 -54 37 -36
19 -48 30 -41 37 6 6 17 8 25 5 8 -3 13 0 11 7 -6 24 61 53 132 58 58 4 76 1
126 -22 32 -15 66 -34 76 -43 15 -14 30 -12 160 16 131 28 289 68 296 75 3 3
-75 56 -83 56 -3 0 -5 -5 -5 -11 0 -5 5 -7 10 -4 6 3 10 1 10 -4 0 -6 7 -11
15 -11 8 0 15 -6 15 -13 0 -7 -9 -13 -20 -13 -11 0 -20 3 -20 7 0 4 -7 9 -14
12 -10 4 -13 1 -10 -7 8 -20 -12 -29 -36 -16 -12 6 -20 7 -20 1 0 -5 5 -11 12
-13 7 -3 6 -7 -5 -11 -9 -3 -17 -2 -17 4 0 6 -8 6 -21 -1 -11 -7 -23 -9 -26
-6 -3 3 -12 -2 -20 -10 -9 -8 -22 -13 -29 -10 -7 3 -16 1 -19 -5 -4 -5 -11 -7
-16 -3 -6 4 -5 11 2 20 10 12 9 17 -1 27 -10 10 -12 9 -7 -5 4 -12 -3 -21 -25
-33 -17 -8 -37 -15 -45 -15 -7 0 -13 -4 -13 -8 0 -12 -52 -13 -66 -1 -18 15
-18 24 2 43 8 9 11 16 5 16 -6 0 -15 -9 -21 -20 -10 -19 -12 -19 -43 -3 -18 9
-27 18 -20 20 45 16 169 40 180 36 7 -3 13 -1 13 4 0 5 6 10 13 11 6 1 35 6
64 10 46 7 51 6 40 -6 -10 -13 -9 -14 11 -3 12 6 22 17 22 23 0 5 9 8 20 5 11
-3 18 -1 14 4 -10 17 81 9 108 -9z m155 -294 c-3 -8 -6 -5 -6 6 -1 11 2 17 5
13 3 -3 4 -12 1 -19z m-1147 -594 c0 -17 -22 -14 -28 4 -2 7 3 12 12 12 9 0
16 -7 16 -16z"/>
<path d="M2522 1114 c-14 -16 -5 -18 17 -5 7 5 9 11 5 14 -5 3 -15 -1 -22 -9z"/>
<path d="M2430 1110 c0 -5 5 -10 10 -10 6 0 10 5 10 10 0 6 -4 10 -10 10 -5 0
-10 -4 -10 -10z"/>
<path d="M2575 1100 c3 -5 11 -10 16 -10 6 0 7 5 4 10 -3 6 -11 10 -16 10 -6
0 -7 -4 -4 -10z"/>
<path d="M2455 1080 c-10 -11 -15 -23 -12 -27 7 -6 36 25 37 40 0 11 -6 8 -25
-13z"/>
<path d="M2335 1060 c-3 -5 -1 -10 4 -10 6 0 11 5 11 10 0 6 -2 10 -4 10 -3 0
-8 -4 -11 -10z"/>
<path d="M2090 1035 c0 -4 7 -13 16 -20 13 -9 14 -16 7 -29 -5 -10 -13 -17
-16 -17 -20 3 -19 0 1 -15 12 -8 22 -21 22 -28 0 -7 11 -23 25 -36 14 -13 24
-29 21 -36 -3 -7 2 -34 10 -60 8 -27 13 -53 11 -58 -4 -11 16 -36 27 -36 3 0
6 6 6 13 0 8 14 33 31 57 24 32 33 40 39 29 13 -23 6 -64 -10 -64 -8 0 -14 6
-12 13 1 8 -2 11 -8 7 -6 -4 -9 -13 -6 -20 3 -8 0 -15 -7 -18 -6 -2 -7 -6 -1
-9 5 -4 24 0 43 8 31 13 33 16 28 51 -3 21 -9 51 -13 67 -5 19 -2 31 7 38 12
8 11 9 -1 5 -8 -2 -26 12 -42 34 -28 38 -107 99 -129 99 -7 0 -21 7 -31 17
-10 9 -18 13 -18 8z m90 -70 c0 -6 9 -20 20 -30 18 -17 20 -17 14 -2 -8 23 -1
21 22 -5 10 -12 13 -18 7 -14 -27 15 -12 -23 18 -48 17 -14 27 -26 24 -26 -4
0 -2 -6 4 -13 8 -11 7 -14 -7 -14 -9 0 -24 5 -32 11 -13 10 -13 9 -1 -7 12
-15 11 -20 -8 -40 -11 -13 -21 -28 -21 -35 0 -6 -4 -14 -10 -17 -6 -3 -9 4 -9
17 1 13 -5 41 -13 63 -13 37 -13 42 4 60 13 13 15 22 8 29 -8 8 -14 6 -21 -4
-9 -13 -10 -12 -6 2 6 16 -15 43 -24 33 -3 -2 -10 4 -17 15 -9 15 -9 22 4 34
16 17 44 11 44 -9z"/>
<path d="M2200 830 c-9 -6 -10 -10 -3 -10 6 0 15 5 18 10 8 12 4 12 -15 0z"/>
<path d="M2206 997 c3 -10 9 -15 12 -12 3 3 0 11 -7 18 -10 9 -11 8 -5 -6z"/>
<path d="M2020 903 c0 -6 7 -17 17 -24 21 -18 63 -108 63 -136 0 -13 5 -23 10
-23 14 0 3 44 -26 106 -23 49 -64 98 -64 77z"/>
<path d="M2420 896 c14 -8 45 -15 70 -14 l45 0 -50 8 c-27 4 -59 11 -70 15
-14 4 -12 1 5 -9z"/>
<path d="M1960 896 c0 -2 8 -10 18 -17 15 -13 16 -12 3 4 -13 16 -21 21 -21
13z"/>
<path d="M2335 890 c-7 -12 12 -12 40 0 18 8 17 9 -7 9 -15 1 -30 -3 -33 -9z"/>
<path d="M2390 846 c0 -2 8 -10 18 -17 15 -13 16 -12 3 4 -13 16 -21 21 -21
13z"/>
<path d="M2678 833 c7 -3 16 -2 19 1 4 3 -2 6 -13 5 -11 0 -14 -3 -6 -6z"/>
<path d="M2568 812 c-32 -9 -58 -20 -58 -25 0 -5 10 -6 23 -2 12 4 34 9 49 12
15 3 33 11 39 19 6 8 10 13 8 13 -2 -1 -30 -9 -61 -17z"/>
<path d="M2741 797 c-13 -21 -12 -21 5 -5 10 10 16 20 13 22 -3 3 -11 -5 -18
-17z"/>
<path d="M2451 779 c-18 -6 -31 -12 -29 -15 8 -7 68 8 68 17 0 5 -1 9 -2 8 -2
0 -18 -5 -37 -10z"/>
<path d="M2557 759 c7 -7 15 -10 18 -7 3 3 -2 9 -12 12 -14 6 -15 5 -6 -5z"/>
<path d="M2388 753 c7 -3 16 -2 19 1 4 3 -2 6 -13 5 -11 0 -14 -3 -6 -6z"/>
<path d="M2490 736 c0 -2 8 -10 18 -17 15 -13 16 -12 3 4 -13 16 -21 21 -21
13z"/>
<path d="M2292 701 c-8 -5 -12 -16 -10 -25 2 -12 6 -10 15 9 6 14 10 25 10 25
-1 0 -8 -4 -15 -9z"/>
<path d="M2180 690 c0 -5 5 -10 11 -10 5 0 7 5 4 10 -3 6 -8 10 -11 10 -2 0
-4 -4 -4 -10z"/>
<path d="M2204 676 c-20 -22 -35 -57 -30 -69 2 -7 8 -2 12 11 4 15 9 19 14 13
7 -13 40 -4 40 10 0 5 -7 9 -15 9 -8 0 -15 4 -15 10 0 6 9 6 26 0 16 -7 23 -7
19 0 -12 20 -40 28 -51 16z"/>
<path d="M2305 650 c-4 -6 3 -10 14 -10 25 0 27 6 6 13 -8 4 -17 2 -20 -3z"/>
<path d="M2266 594 c-5 -14 -4 -15 9 -4 17 14 19 20 6 20 -5 0 -12 -7 -15 -16z"/>
<path d="M2290 575 c-7 -9 -8 -15 -2 -15 5 0 12 7 16 15 3 8 4 15 2 15 -2 0
-9 -7 -16 -15z"/>
<path d="M2225 560 c3 -5 8 -10 11 -10 2 0 4 5 4 10 0 6 -5 10 -11 10 -5 0 -7
-4 -4 -10z"/>
<path d="M2136 547 c-16 -12 -16 -13 2 -13 10 0 19 6 19 13 0 7 -1 13 -2 13
-1 0 -9 -6 -19 -13z"/>
<path d="M2076 504 c-18 -12 -16 -13 17 -12 42 1 44 3 19 17 -12 6 -23 5 -36
-5z"/>
<path d="M1230 1186 c0 -3 11 -17 25 -32 30 -33 25 -43 -9 -20 -29 18 -40 21
-31 6 3 -5 1 -10 -4 -10 -6 0 -10 -6 -8 -12 2 -14 24 -27 47 -27 8 0 5 4 -7 9
-13 5 -23 14 -23 20 0 17 20 11 45 -14 19 -19 22 -29 16 -52 -5 -16 -13 -28
-18 -27 -20 4 -8 -32 19 -62 16 -16 28 -34 28 -40 -1 -5 -14 5 -30 24 -16 19
-33 32 -37 28 -4 -4 14 -29 40 -55 26 -26 47 -52 47 -57 0 -5 -29 20 -65 55
-69 69 -90 75 -27 8 41 -44 130 -113 137 -106 3 2 -9 20 -25 39 -32 37 -40 59
-13 38 9 -8 -2 12 -26 43 l-42 57 20 28 c20 27 21 31 6 78 -9 30 -25 57 -40
68 -14 10 -25 16 -25 13z"/>
<path d="M1557 1170 c-7 -28 -53 -47 -78 -32 -11 7 -19 8 -19 2 0 -5 -6 -10
-14 -10 -8 0 -17 -4 -20 -9 -8 -12 95 -8 115 4 9 6 24 22 34 38 15 23 15 27 2
27 -8 0 -17 -9 -20 -20z"/>
<path d="M587 1156 c10 -13 19 -23 21 -21 5 5 -22 45 -31 45 -4 0 0 -11 10
-24z"/>
<path d="M1881 1164 c0 -11 3 -14 6 -6 3 7 2 16 -1 19 -3 4 -6 -2 -5 -13z"/>
<path d="M1185 1160 c3 -5 8 -10 11 -10 2 0 4 5 4 10 0 6 -5 10 -11 10 -5 0
-7 -4 -4 -10z"/>
<path d="M206 1145 c-3 -9 -6 -24 -5 -33 0 -9 5 -4 10 12 9 32 6 48 -5 21z"/>
<path d="M696 1147 c-17 -13 -18 -14 -2 -20 10 -4 15 -3 11 3 -3 6 1 10 9 10
8 0 18 5 21 10 9 15 -18 12 -39 -3z"/>
<path d="M775 1150 c3 -5 11 -10 16 -10 6 0 7 5 4 10 -3 6 -11 10 -16 10 -6 0
-7 -4 -4 -10z"/>
<path d="M1779 1143 c-13 -16 -12 -17 4 -4 9 7 17 15 17 17 0 8 -8 3 -21 -13z"/>
<path d="M1116 1133 c-6 -14 -5 -15 5 -6 7 7 10 15 7 18 -3 3 -9 -2 -12 -12z"/>
<path d="M2066 1135 c-4 -10 1 -15 14 -15 13 0 18 5 14 15 -4 8 -10 15 -14 15
-4 0 -10 -7 -14 -15z"/>
<path d="M520 1130 c0 -5 5 -10 11 -10 5 0 7 5 4 10 -3 6 -8 10 -11 10 -2 0
-4 -4 -4 -10z"/>
<path d="M730 1119 c0 -15 18 -19 23 -6 3 8 -1 14 -9 14 -8 0 -14 -4 -14 -8z"/>
<path d="M844 1121 c4 -6 16 -16 28 -22 15 -8 18 -8 14 0 -4 6 -16 16 -28 22
-15 8 -18 8 -14 0z"/>
<path d="M1379 1125 c-3 -2 -16 -5 -31 -7 -47 -7 -43 -18 5 -18 26 0 47 4 47
9 0 11 -15 23 -21 16z"/>
<path d="M1724 1115 c-10 -8 -14 -15 -8 -15 6 0 17 7 24 15 16 19 9 19 -16 0z"/>
<path d="M1975 1120 c-3 -5 1 -10 10 -10 9 0 13 5 10 10 -3 6 -8 10 -10 10 -2
0 -7 -4 -10 -10z"/>
<path d="M275 1110 c-3 -5 -2 -10 4 -10 5 0 13 5 16 10 3 6 2 10 -4 10 -5 0
-13 -4 -16 -10z"/>
<path d="M600 1110 c-9 -6 -10 -10 -3 -10 6 0 15 5 18 10 8 12 4 12 -15 0z"/>
<path d="M1071 1111 c-10 -7 -7 -9 12 -8 14 1 23 5 20 10 -6 9 -15 9 -32 -2z"/>
<path d="M1590 1110 c-8 -5 -10 -10 -5 -10 6 0 17 5 25 10 8 5 11 10 5 10 -5
0 -17 -5 -25 -10z"/>
<path d="M385 1100 c-3 -6 1 -7 9 -4 18 7 21 14 7 14 -6 0 -13 -4 -16 -10z"/>
<path d="M756 1094 c-4 -10 -2 -12 6 -8 8 5 9 2 5 -9 -8 -22 2 -22 19 1 18 23
17 27 -5 29 -11 1 -22 -5 -25 -13z"/>
<path d="M1630 1091 c0 -22 37 -71 53 -71 8 0 12 15 12 38 0 38 0 38 -16 18
l-17 -21 -11 28 c-12 31 -21 35 -21 8z"/>
<path d="M2920 1103 c0 -5 18 -8 40 -8 22 0 40 3 40 8 0 4 -18 7 -40 7 -22 0
-40 -3 -40 -7z"/>
<path d="M680 1080 c0 -11 2 -20 4 -20 2 0 6 9 9 20 3 11 1 20 -4 20 -5 0 -9
-9 -9 -20z"/>
<path d="M820 1090 c0 -5 5 -10 11 -10 5 0 7 5 4 10 -3 6 -8 10 -11 10 -2 0
-4 -4 -4 -10z"/>
<path d="M305 1080 c3 -5 8 -10 11 -10 2 0 4 5 4 10 0 6 -5 10 -11 10 -5 0 -7
-4 -4 -10z"/>
<path d="M717 1083 c-4 -3 -7 -16 -6 -27 0 -19 1 -19 10 3 10 24 8 36 -4 24z"/>
<path d="M1165 1055 c-27 -48 -13 -53 14 -5 12 22 18 40 13 40 -5 0 -17 -16
-27 -35z"/>
<path d="M335 1060 c-8 -13 5 -13 25 0 13 8 13 10 -2 10 -9 0 -20 -4 -23 -10z"/>
<path d="M2858 1044 c3 -19 7 -22 13 -12 13 20 11 38 -5 38 -9 0 -12 -8 -8
-26z"/>
<path d="M790 1044 c0 -12 7 -25 16 -28 24 -9 25 -4 4 24 -19 24 -20 24 -20 4z"/>
<path d="M880 1050 c-13 -8 -12 -10 3 -10 9 0 17 5 17 10 0 12 -1 12 -20 0z"/>
<path d="M685 1026 c10 -14 19 -26 22 -26 7 0 -17 39 -28 46 -6 3 -3 -5 6 -20z"/>
<path d="M1205 1040 c-3 -5 -1 -10 4 -10 6 0 11 5 11 10 0 6 -2 10 -4 10 -3 0
-8 -4 -11 -10z"/>
<path d="M402 1014 c10 -10 20 -16 22 -13 3 3 -5 11 -17 18 -21 13 -21 12 -5
-5z"/>
<path d="M740 1023 c0 -5 9 -18 20 -28 11 -10 20 -14 20 -8 0 5 -9 18 -20 28
-11 10 -20 14 -20 8z"/>
<path d="M840 1015 c0 -8 2 -15 4 -15 2 0 6 7 10 15 3 8 1 15 -4 15 -6 0 -10
-7 -10 -15z"/>
<path d="M1421 1016 c-8 -9 -8 -16 -2 -20 6 -4 15 3 21 14 12 23 -2 27 -19 6z"/>
<path d="M1466 1014 c-9 -22 3 -32 14 -14 12 19 12 30 1 30 -5 0 -12 -7 -15
-16z"/>
<path d="M1515 1010 c-10 -11 -13 -20 -7 -20 6 0 16 9 22 20 6 11 9 20 7 20
-2 0 -12 -9 -22 -20z"/>
<path d="M1325 1009 c-11 -17 1 -21 15 -4 8 9 8 15 2 15 -6 0 -14 -5 -17 -11z"/>
<path d="M1370 1004 c0 -8 5 -12 10 -9 6 3 10 10 10 16 0 5 -4 9 -10 9 -5 0
-10 -7 -10 -16z"/>
<path d="M1556 1004 c-4 -10 -1 -14 6 -12 15 5 23 28 10 28 -5 0 -13 -7 -16
-16z"/>
<path d="M1606 1011 c-4 -7 -5 -15 -2 -18 9 -9 19 4 14 18 -4 11 -6 11 -12 0z"/>
<path d="M1650 999 c0 -5 5 -7 10 -4 6 3 10 8 10 11 0 2 -4 4 -10 4 -5 0 -10
-5 -10 -11z"/>
<path d="M796 991 c-3 -5 1 -12 10 -15 22 -8 25 -4 9 11 -8 7 -16 9 -19 4z"/>
<path d="M529 973 c-13 -16 -12 -17 4 -4 9 7 17 15 17 17 0 8 -8 3 -21 -13z"/>
<path d="M845 980 c-3 -5 3 -10 15 -10 12 0 18 5 15 10 -3 6 -10 10 -15 10 -5
0 -12 -4 -15 -10z"/>
<path d="M577 959 c4 -13 8 -18 11 -10 2 7 -1 18 -6 23 -8 8 -9 4 -5 -13z"/>
<path d="M629 951 c8 -14 7 -22 -3 -30 -21 -17 -26 -49 -9 -55 22 -9 30 -7 14
3 -12 8 -13 14 -3 36 7 15 17 23 23 19 6 -3 3 5 -6 20 -20 30 -31 35 -16 7z"/>
<path d="M960 960 c-9 -6 -10 -10 -3 -10 6 0 15 5 18 10 8 12 4 12 -15 0z"/>
<path d="M1741 956 c-9 -11 -9 -16 1 -22 7 -4 10 -4 6 1 -4 4 -3 14 3 22 6 7
9 13 6 13 -2 0 -10 -6 -16 -14z"/>
<path d="M533 948 c-13 -6 -23 -15 -23 -20 0 -5 11 -1 25 8 37 24 35 30 -2 12z"/>
<path d="M2890 920 c5 -18 12 -35 16 -39 10 -9 -6 53 -17 63 -5 6 -5 -4 1 -24z"/>
<path d="M586 919 c-8 -12 -13 -26 -10 -31 4 -5 12 3 20 18 18 34 11 43 -10
13z"/>
<path d="M686 931 c-4 -7 -5 -15 -2 -18 9 -9 19 4 14 18 -4 11 -6 11 -12 0z"/>
<path d="M546 917 c3 -10 9 -15 12 -12 3 3 0 11 -7 18 -10 9 -11 8 -5 -6z"/>
<path d="M1515 920 c-3 -5 1 -10 9 -10 9 0 16 5 16 10 0 6 -4 10 -9 10 -6 0
-13 -4 -16 -10z"/>
<path d="M1645 921 c-6 -11 9 -23 19 -14 9 9 7 23 -3 23 -6 0 -12 -4 -16 -9z"/>
<path d="M1386 890 c-8 -16 -12 -30 -9 -30 7 0 42 43 43 53 0 18 -20 4 -34
-23z"/>
<path d="M1685 910 c4 -6 11 -8 16 -5 14 9 11 15 -7 15 -8 0 -12 -5 -9 -10z"/>
<path d="M1212 867 l-23 -42 25 30 c21 25 34 55 24 55 -2 0 -13 -19 -26 -43z"/>
<path d="M1435 900 c-3 -5 -1 -10 4 -10 6 0 11 5 11 10 0 6 -2 10 -4 10 -3 0
-8 -4 -11 -10z"/>
<path d="M735 890 c-3 -5 -2 -10 4 -10 5 0 18 -3 28 -7 16 -6 16 -5 4 10 -15
19 -27 22 -36 7z"/>
<path d="M677 883 c-10 -9 -9 -33 1 -33 4 0 8 9 9 20 2 21 0 24 -10 13z"/>
<path d="M1480 878 l-25 -11 25 -7 c46 -14 165 -11 186 5 18 14 17 14 -16 9
-26 -4 -31 -3 -20 5 21 15 -116 14 -150 -1z m124 -10 c-3 -4 -9 -8 -15 -8 -5
0 -9 4 -9 8 0 5 7 9 15 9 8 0 12 -4 9 -9z m-67 -4 c-3 -3 -12 -4 -19 -1 -8 3
-5 6 6 6 11 1 17 -2 13 -5z"/>
<path d="M1415 870 c-3 -5 -1 -10 4 -10 6 0 11 5 11 10 0 6 -2 10 -4 10 -3 0
-8 -4 -11 -10z"/>
<path d="M1897 839 c-22 -18 -37 -39 -37 -52 1 -18 3 -16 15 10 7 17 22 34 33
37 11 4 23 13 26 21 7 20 6 20 -37 -16z"/>
<path d="M2910 865 c0 -15 35 -114 54 -150 9 -16 16 -25 16 -19 0 14 -69 182
-70 169z"/>
<path d="M785 850 c-3 -5 -1 -10 4 -10 6 0 11 5 11 10 0 6 -2 10 -4 10 -3 0
-8 -4 -11 -10z"/>
<path d="M1422 838 c-7 -7 -12 -16 -12 -20 0 -15 15 -8 28 12 13 22 3 27 -16
8z"/>
<path d="M1460 830 c0 -5 5 -10 10 -10 6 0 10 5 10 10 0 6 -4 10 -10 10 -5 0
-10 -4 -10 -10z"/>
<path d="M1630 820 c-6 -11 -7 -20 -3 -20 5 0 14 9 21 20 7 11 8 20 2 20 -5 0
-14 -9 -20 -20z"/>
<path d="M1023 821 c-5 -3 -14 -19 -21 -36 l-12 -30 22 25 c24 26 32 28 58 17
18 -9 66 -11 189 -9 112 2 117 9 8 13 -42 2 -77 7 -77 11 0 5 -9 3 -21 -4 -17
-11 -22 -10 -32 2 -12 15 -97 23 -114 11z"/>
<path d="M1525 820 c-3 -5 1 -10 9 -10 9 0 16 5 16 10 0 6 -4 10 -9 10 -6 0
-13 -4 -16 -10z"/>
<path d="M1570 819 c0 -5 5 -7 10 -4 6 3 10 8 10 11 0 2 -4 4 -10 4 -5 0 -10
-5 -10 -11z"/>
<path d="M1665 820 c-3 -5 -1 -10 4 -10 6 0 11 5 11 10 0 6 -2 10 -4 10 -3 0
-8 -4 -11 -10z"/>
<path d="M1923 804 c-33 -37 -36 -44 -25 -57 17 -22 21 -46 10 -53 -7 -5 -8
-2 -3 7 7 11 5 11 -9 -1 -10 -8 -13 -16 -8 -18 6 -2 8 -10 5 -18 -3 -8 0 -14
6 -14 6 0 11 7 11 15 0 8 8 20 19 27 18 11 18 12 0 32 -24 25 -24 42 0 71 17
22 20 23 40 8 22 -15 22 -14 9 6 -17 27 -28 26 -55 -5z"/>
<path d="M1945 770 c-16 -7 -17 -9 -3 -9 9 -1 20 4 23 9 7 11 7 11 -20 0z"/>
<path d="M1955 720 c26 -11 55 -12 55 -2 0 4 -17 9 -37 10 -30 1 -34 -1 -18
-8z"/>
<path d="M167 703 c95 -2 251 -2 345 0 95 1 18 3 -172 3 -190 0 -267 -2 -173
-3z"/>
<path d="M0 670 c0 -7 183 -10 553 -11 303 0 572 -2 597 -4 118 -9 553 -14
535 -5 -50 23 -1685 43 -1685 20z"/>
<path d="M2768 641 c-112 -10 -86 -19 54 -19 73 0 124 4 113 8 -19 7 -18 8 5
12 35 7 -91 6 -172 -1z"/>
<path d="M1950 599 c0 -5 5 -7 10 -4 6 3 10 8 10 11 0 2 -4 4 -10 4 -5 0 -10
-5 -10 -11z"/>
<path d="M1198 593 c7 -3 16 -2 19 1 4 3 -2 6 -13 5 -11 0 -14 -3 -6 -6z"/>
<path d="M1664 569 c-15 -31 -19 -109 -5 -109 12 0 20 35 11 51 -10 15 5 58
27 74 14 11 14 12 -1 12 -10 0 -24 -13 -32 -28z"/>
<path d="M448 583 c7 -3 16 -2 19 1 4 3 -2 6 -13 5 -11 0 -14 -3 -6 -6z"/>
<path d="M1711 543 c-7 -29 -11 -58 -9 -65 3 -7 10 10 17 39 7 29 11 58 9 65
-3 7 -10 -10 -17 -39z"/>
<path d="M1503 483 c-7 -2 -13 -12 -13 -21 0 -12 3 -13 8 -5 4 6 20 10 34 9
15 -2 25 0 22 5 -2 5 9 3 26 -3 38 -13 53 -2 16 12 -28 10 -72 12 -93 3z"/>
<path d="M1757 468 c-8 -30 -1 -35 12 -9 6 11 7 22 2 25 -5 3 -11 -4 -14 -16z"/>
<path d="M1159 452 c-24 -22 -32 -37 -33 -68 l-1 -39 45 1 c42 1 45 3 46 28 1
18 11 36 29 50 28 22 28 46 0 46 -18 0 -65 -57 -65 -79 0 -16 -18 -41 -29 -41
-4 0 -6 15 -6 34 0 34 30 76 55 76 5 0 10 5 10 10 0 17 -19 11 -51 -18z m68
-30 c-15 -15 -27 -36 -27 -45 0 -9 -4 -17 -10 -17 -6 0 -6 10 1 27 12 33 38
63 52 63 6 0 -1 -13 -16 -28z"/>
<path d="M1847 472 c8 -5 9 -13 3 -22 -14 -22 -13 -24 23 -44 l32 -18 -24 20
c-28 22 -21 42 15 42 28 0 84 -26 84 -39 0 -4 20 -12 45 -18 25 -6 45 -6 45
-2 0 5 10 9 23 9 12 0 29 5 37 10 11 7 -2 10 -45 11 -83 3 -85 3 -135 26 -44
20 -126 40 -103 25z"/>
<path d="M1305 449 c-32 -7 -25 -12 13 -9 30 2 28 -14 -5 -36 -29 -19 -33 -21
-58 -23 -8 0 -15 -7 -15 -15 0 -9 15 -15 42 -18 50 -5 79 18 82 64 3 35 -17
47 -59 37z m45 -60 c0 -5 -4 -8 -9 -5 -5 4 -11 1 -13 -6 -2 -6 -15 -13 -29
-15 -23 -3 -23 -2 6 17 34 22 45 25 45 9z"/>
<path d="M1443 420 c-13 -5 -23 -17 -23 -25 0 -25 20 -56 31 -49 6 4 4 13 -7
25 -21 23 -13 33 29 35 45 3 67 -17 81 -72 16 -64 37 -72 23 -9 -7 32 -21 55
-44 76 -35 30 -53 34 -90 19z"/>
<path d="M1936 401 c-25 -5 -27 -8 -14 -19 18 -15 48 -6 48 14 0 8 -1 13 -2
13 -2 -1 -16 -4 -32 -8z"/>
<path d="M903 374 c-28 -14 -74 -54 -61 -54 2 0 19 11 37 24 19 14 40 22 49
19 9 -4 13 -2 8 5 -3 6 3 12 16 15 20 4 20 4 3 5 -11 1 -34 -6 -52 -14z"/>
<path d="M962 360 c-14 -18 -40 -34 -65 -41 -39 -11 -40 -13 -17 -19 14 -4 24
-11 23 -17 -1 -5 5 -10 12 -10 11 0 12 4 4 13 -8 9 -3 17 18 30 15 10 34 22
41 28 10 7 12 3 9 -20 -2 -19 -15 -37 -37 -51 -41 -28 -72 -31 -64 -5 5 13 4
14 -4 3 -5 -7 -15 -11 -21 -7 -7 5 -9 1 -5 -8 10 -26 70 -20 110 10 24 19 42
25 64 22 19 -3 29 -1 27 6 -2 6 -14 11 -28 11 -21 0 -24 5 -25 39 0 49 -12 53
-42 16z"/>
<path d="M2013 370 c-38 -16 -75 -97 -48 -106 6 -2 11 10 11 27 1 22 11 39 35
60 36 31 36 33 2 19z"/>
<path d="M1396 355 c4 -8 8 -15 10 -15 2 0 4 7 4 15 0 8 -4 15 -10 15 -5 0 -7
-7 -4 -15z"/>
<path d="M1505 354 c22 -16 35 -18 35 -5 0 5 -12 11 -27 14 -26 5 -26 4 -8 -9z"/>
<path d="M1889 347 c-22 -10 -25 -16 -18 -35 9 -23 29 -22 29 0 0 6 7 20 17
30 18 20 10 22 -28 5z"/>
<path d="M2052 323 c-6 -10 -10 -22 -10 -28 0 -5 -18 -19 -40 -30 -23 -11 -41
-23 -42 -27 -1 -32 96 35 103 70 6 33 2 40 -11 15z"/>
<path d="M1330 320 c-14 -4 -64 -8 -111 -9 -56 -1 -90 -5 -97 -14 -8 -10 5
-11 62 -9 72 4 73 3 78 -22 5 -26 5 -26 -58 -26 -46 0 -63 3 -60 13 1 6 1 9
-1 5 -3 -5 -12 -8 -21 -8 -15 -1 -14 -3 2 -15 13 -10 43 -15 87 -15 l68 0 3
37 c3 35 6 38 42 44 40 6 60 -5 83 -46 7 -12 28 -17 91 -21 48 -2 83 0 87 6 3
5 0 10 -8 10 -15 0 -40 46 -33 59 3 4 -8 5 -25 3 -38 -6 -51 -25 -13 -20 21 2
28 -1 26 -11 -2 -8 3 -18 10 -23 8 -6 -11 -8 -51 -5 -65 4 -96 23 -85 52 3 7
-5 15 -18 19 -26 7 -25 7 -58 -4z"/>
<path d="M1425 310 c3 -5 8 -10 11 -10 2 0 4 5 4 10 0 6 -5 10 -11 10 -5 0 -7
-4 -4 -10z"/>
<path d="M1910 300 c0 -5 7 -10 15 -10 8 0 15 5 15 10 0 6 -7 10 -15 10 -8 0
-15 -4 -15 -10z"/>
<path d="M2074 282 c2 -4 21 -9 41 -10 23 -2 34 1 30 8 -3 5 -22 10 -41 10
-19 0 -33 -4 -30 -8z"/>
<path d="M1720 251 c0 -14 200 -19 218 -5 10 7 -18 11 -102 12 -69 2 -116 -1
-116 -7z"/>
<path d="M1600 229 c0 -10 28 -19 61 -19 46 0 34 18 -16 22 -25 2 -45 0 -45
-3z"/>
<path d="M1350 218 c-33 -10 -34 -11 -12 -19 23 -9 72 7 72 23 0 10 -15 9 -60
-4z"/>
<path d="M1720 220 c0 -5 5 -10 10 -10 6 0 10 5 10 10 0 6 -4 10 -10 10 -5 0
-10 -4 -10 -10z"/>
<path d="M1920 214 c-8 -9 -9 -14 -2 -14 6 0 13 5 15 10 3 6 4 5 3 -2 -3 -15
-145 -18 -206 -6 -31 7 -33 6 -17 -6 9 -7 47 -16 83 -20 77 -8 249 3 219 14
-11 4 -30 6 -42 4 -16 -3 -21 0 -17 10 7 19 -22 28 -36 10z"/>
<path d="M1395 177 c-12 -27 -47 -33 -69 -12 -9 9 -16 12 -16 6 0 -6 11 -18
24 -26 29 -19 72 -11 79 15 7 28 -7 42 -18 17z"/>
</g>
</svg>
