<?xml version="1.0" standalone="no"?>
<!DOCTYPE svg PUBLIC "-//W3C//DTD SVG 20010904//EN"
 "http://www.w3.org/TR/2001/REC-SVG-20010904/DTD/svg10.dtd">
<svg version="1.0" xmlns="http://www.w3.org/2000/svg"
 width="300.000000pt" height="350.000000pt" viewBox="0 0 300.000000 350.000000"
 preserveAspectRatio="xMidYMid meet">
<metadata>
Created by potrace 1.10, written by Peter Selinger 2001-2011
</metadata>
<g transform="translate(0.000000,350.000000) scale(0.100000,-0.100000)"
fill="#ffffff" stroke="none">
<path d="M676 3413 c-10 -10 -7 -145 5 -250 29 -264 131 -411 364 -523 89 -43
301 -117 310 -108 2 2 -27 29 -65 62 -93 79 -224 209 -272 270 -36 45 -78 116
-78 131 0 3 41 -37 91 -89 93 -98 192 -177 267 -215 l42 -21 0 69 c0 170 -88
308 -271 424 -31 20 -107 61 -170 92 -116 56 -143 76 -190 132 -15 18 -30 29
-33 26z"/>
<path d="M1615 2826 c-25 -27 -74 -105 -99 -158 -37 -78 -55 -155 -57 -238 -1
-39 -5 -73 -9 -75 -5 -3 -47 11 -95 30 -207 83 -347 115 -508 115 -94 0 -126
-4 -184 -24 -92 -31 -108 -40 -171 -94 -229 -193 -333 -609 -252 -1001 19 -96
61 -241 86 -298 8 -18 21 -50 30 -70 22 -53 93 -194 108 -215 7 -10 15 -15 19
-12 3 3 3 -3 1 -13 -3 -11 2 -25 10 -32 14 -12 16 -10 16 8 0 29 29 71 54 81
13 4 46 0 85 -11 l64 -18 61 34 c88 49 200 94 254 101 26 3 63 13 82 23 32 14
38 25 65 107 31 93 79 200 101 221 6 7 17 42 24 79 6 37 18 83 26 102 22 54
17 98 -18 166 -18 33 -36 63 -40 66 -10 8 -47 96 -74 179 -29 88 -31 150 -6
179 17 19 192 110 272 142 19 7 55 22 80 34 25 11 78 23 118 26 53 5 79 12 93
26 18 19 18 23 4 69 -9 31 -11 51 -5 53 6 2 10 10 10 17 0 10 -7 12 -27 6 -45
-13 -138 -54 -141 -63 -2 -4 -12 -8 -22 -8 -10 0 -22 -4 -25 -10 -9 -14 -45
-12 -45 3 1 31 40 159 61 198 48 88 113 165 174 205 30 20 31 19 -58 59 -38
16 -55 20 -62 11z m-118 -348 c-3 -7 -5 -2 -5 12 0 14 2 19 5 13 2 -7 2 -19 0
-25z m-1180 -405 c-4 -3 -7 0 -7 7 0 7 3 10 7 7 3 -4 3 -10 0 -14z m-60 -250
c-4 -3 -7 0 -7 7 0 7 3 10 7 7 3 -4 3 -10 0 -14z m870 -830 c-4 -3 -10 -3 -14
0 -3 4 0 7 7 7 7 0 10 -3 7 -7z"/>
<path d="M1990 2505 c0 -3 11 -10 25 -15 18 -7 25 -17 25 -35 0 -14 7 -39 15
-55 8 -16 12 -36 9 -45 -4 -10 3 -26 17 -41 15 -16 20 -28 13 -32 -6 -4 -17
-30 -24 -59 -15 -56 -30 -69 -61 -52 -25 13 -81 8 -87 -8 -2 -7 8 -17 21 -22
30 -11 70 -68 120 -167 59 -118 93 -126 82 -18 -7 61 -6 64 21 89 35 31 80 27
131 -12 39 -30 41 -45 8 -70 -19 -14 -28 -36 -41 -105 -20 -105 -42 -144 -91
-164 -54 -23 -94 -11 -156 46 l-55 50 -6 -33 c-3 -19 -20 -56 -38 -83 -27 -43
-83 -164 -94 -204 -2 -10 16 -28 52 -50 100 -63 395 -382 413 -447 16 -57 14
-75 -23 -236 -44 -189 -53 -275 -32 -302 16 -20 16 -19 46 15 70 81 216 314
285 454 127 260 191 488 202 721 10 230 -32 417 -131 582 -92 152 -215 250
-362 288 -55 14 -284 22 -284 10z"/>
<path d="M1468 1978 c-20 -5 -44 -18 -54 -29 -17 -19 -17 -25 5 -152 12 -72
26 -134 30 -137 4 -3 10 -13 14 -23 7 -17 8 -17 37 3 55 39 56 50 34 288 -6
66 -6 66 -66 50z"/>
<path d="M1556 1165 c-42 -109 -223 -328 -305 -369 -25 -13 -71 -27 -101 -31
-30 -4 -143 -34 -250 -67 -180 -55 -269 -92 -285 -119 -11 -17 44 -87 175
-219 107 -108 136 -131 203 -163 88 -43 165 -61 219 -51 21 3 74 30 119 59 84
57 139 73 201 60 38 -8 108 -46 128 -70 46 -56 171 -75 260 -39 57 22 180 100
180 114 0 5 -11 10 -24 10 -13 0 -35 9 -50 21 -36 28 -34 69 5 113 42 49 51
86 38 170 -14 90 -6 243 15 284 23 44 21 51 -21 69 -43 18 -316 167 -413 226
-36 22 -68 41 -71 43 -4 2 -14 -16 -23 -41z"/>
</g>
</svg>
